<?xml version="1.0" encoding="UTF-8"?>
<svg version="1.1" xmlns="http://www.w3.org/2000/svg" width="1176" height="928">
<path d="M0 0 C388.08 0 776.16 0 1176 0 C1176 306.24 1176 612.48 1176 928 C787.92 928 399.84 928 0 928 C0 621.76 0 315.52 0 0 Z " fill="#FEFEFE" transform="translate(0,0)"/>
<path d="M0 0 C1.41530165 -0.00489355 2.83059929 -0.0110855 4.2458902 -0.01845789 C8.12124016 -0.03482146 11.9963862 -0.03254685 15.87175858 -0.02708292 C20.0565852 -0.02440833 24.24135799 -0.03895246 28.42616272 -0.05117798 C36.61903908 -0.07221517 44.81184464 -0.07677385 53.00474482 -0.07499009 C59.66447833 -0.07368175 66.32418978 -0.07749029 72.98391914 -0.08491516 C74.90324547 -0.08701438 76.82257179 -0.08911198 78.74189812 -0.09120798 C80.17490196 -0.09277327 80.17490196 -0.09277327 81.63685537 -0.09437019 C99.69758999 -0.11326522 117.75828398 -0.11222445 135.81902439 -0.10540086 C152.33770782 -0.09982436 168.85623621 -0.12065669 185.37488341 -0.15376133 C202.34232969 -0.18750115 219.3097017 -0.2026664 236.27718216 -0.1980443 C245.80073531 -0.19580011 255.32414512 -0.2010356 264.8476696 -0.22593689 C272.95443439 -0.24695362 281.06097721 -0.25053819 289.16775113 -0.2316373 C293.30263946 -0.22248221 297.43711395 -0.22132924 301.57196999 -0.24199295 C305.36019775 -0.26071487 309.1476731 -0.25618669 312.93587232 -0.23344713 C314.9489683 -0.22728904 316.96209368 -0.24564361 318.97510618 -0.26498365 C327.84092013 -0.17832629 333.5778311 1.58450984 340.34645081 7.31628418 C340.85563049 7.91956543 341.36481018 8.52284668 341.88941956 9.14440918 C342.41148987 9.73737793 342.93356018 10.33034668 343.47145081 10.94128418 C348.91553307 19.25973592 349.65341024 26.39056628 349.58485413 36.24119568 C349.58946898 37.63602538 349.59582581 39.03085021 349.6037631 40.42566496 C349.6203998 44.23989034 349.6122361 48.05371335 349.59981823 51.86793983 C349.59074664 55.98869299 349.60474795 60.10937824 349.61573792 64.2301178 C349.63350574 72.29555469 349.62969077 80.36084252 349.61808735 88.4262852 C349.60904584 94.98301504 349.60783214 101.53970317 349.61218262 108.09643745 C349.61279555 109.03040292 349.61340848 109.96436838 349.61403999 110.92663582 C349.61531892 112.82411071 349.61661577 114.7215856 349.61793035 116.61906046 C349.62933123 134.40372916 349.6162305 152.18831533 349.59472889 169.97297049 C349.57686129 185.22376157 349.57996018 200.47443085 349.59840393 215.72521973 C349.6198244 233.44563968 349.62822955 251.16598731 349.61595488 268.8864184 C349.61468071 270.77713397 349.61342323 272.66784955 349.61218262 274.55856514 C349.61125696 275.95387603 349.61125696 275.95387603 349.61031261 277.37737502 C349.60686303 283.92359239 349.61267968 290.46976379 349.62210083 297.01597404 C349.6333354 304.99750898 349.63025028 312.97888663 349.60897785 320.96040361 C349.59848656 325.03055359 349.5943126 329.10044159 349.60757446 333.17058945 C349.6195445 336.9007723 349.61286071 340.63045178 349.59166425 344.36058933 C349.58512046 346.34007428 349.59809307 348.31959451 349.61189318 350.29904217 C349.5198285 360.81749638 347.22460722 368.48027243 340.34645081 376.50769043 C332.25793017 383.23188229 325.37388509 384.11794059 315.00234985 384.02932739 C313.58276781 384.03509569 312.16319325 384.04304156 310.74363416 384.05296361 C306.86092785 384.07376369 302.97883899 384.06355338 299.09613097 384.04803252 C294.90174292 384.03669459 290.7074592 384.05419387 286.51309204 384.06793213 C278.3032488 384.09014365 270.09363435 384.0853725 261.88378222 384.07086892 C255.20976882 384.05956769 248.53581946 384.05804961 241.86179924 384.06348801 C240.4358728 384.06463725 240.4358728 384.06463725 238.98113976 384.06580972 C237.04984286 384.06740838 235.11854598 384.06902945 233.18724912 384.07067268 C215.08495255 384.08492427 196.98278266 384.0685471 178.88050687 384.04167084 C163.35680298 384.01933621 147.83328607 384.02320993 132.30958557 384.04626465 C114.27272843 384.07303928 96.2359823 384.08354723 78.19910806 384.06820333 C76.27469061 384.06661063 74.35027313 384.06503877 72.42585564 384.06348801 C71.00566775 384.06233094 71.00566775 384.06233094 69.55678921 384.0611505 C62.89334238 384.05683822 56.22996612 384.06410994 49.56653023 384.07588577 C41.4422326 384.08992795 33.31817644 384.08607492 25.19390637 384.05948205 C21.05079971 384.04636635 16.9080952 384.04115279 12.76499176 384.05772781 C8.96809578 384.07268771 5.17197261 384.06434104 1.3751462 384.03784005 C-0.64012846 384.02965788 -2.65545727 384.04587895 -4.67067474 384.06312621 C-13.45909279 383.96863065 -20.47537762 382.52629124 -27.06487125 376.40470183 C-34.93034581 368.14683834 -35.36238974 360.61605158 -35.31748962 349.59831238 C-35.32238171 348.18458647 -35.32857299 346.77086456 -35.33594751 345.35714942 C-35.35233008 341.48147084 -35.35003257 337.6059959 -35.34457254 333.73029482 C-35.34190025 329.54679477 -35.35643793 325.36334875 -35.3686676 321.17987061 C-35.38971571 312.98719005 -35.3942628 304.79458027 -35.39247972 296.60187586 C-35.39117172 289.94165029 -35.39497815 283.28144678 -35.40240479 276.62122536 C-35.404504 274.70221339 -35.4066016 272.78320142 -35.40869761 270.86418945 C-35.40974113 269.90901653 -35.41078466 268.95384361 -35.41185981 267.96972606 C-35.43075985 249.90705799 -35.42971277 231.84443054 -35.42289048 213.78175668 C-35.4173158 197.2636852 -35.43813769 180.74576886 -35.47125095 164.22773363 C-35.50499844 147.26144419 -35.52015492 130.29522904 -35.51553392 113.3289054 C-35.51329023 103.8058644 -35.51851774 94.28296676 -35.54342651 84.75995445 C-35.56445336 76.65209609 -35.56801797 68.5444597 -35.54912692 60.43659218 C-35.53997739 56.30158692 -35.53880172 52.16699536 -35.55948257 48.03202248 C-35.57822584 44.24246922 -35.57365246 40.45366753 -35.55093676 36.66414259 C-35.54478883 34.6527323 -35.56311629 32.6412925 -35.58247328 30.62996596 C-35.4967224 21.83795149 -34.02869166 14.87995834 -27.9626174 8.25252265 C-19.69067196 0.2325873 -11.00462351 -0.04492331 0 0 Z " fill="#000002" transform="translate(486.92308044433594,39.6055908203125)"/>
<path d="M0 0 C0.69264194 -0.00226556 1.38528389 -0.00453111 2.09891498 -0.00686532 C4.43777591 -0.0132339 6.77657932 -0.01237409 9.115448 -0.0115509 C10.78581823 -0.01454097 12.45618777 -0.01794314 14.1265564 -0.02172852 C18.68108177 -0.03059694 23.23558838 -0.03290806 27.79012156 -0.0335443 C30.63908363 -0.03425421 33.48804091 -0.03638758 36.3370018 -0.03904152 C46.28756768 -0.04831042 56.23812013 -0.05237524 66.18869019 -0.05158997 C75.44119558 -0.05099155 84.69364222 -0.06149285 93.94613278 -0.07733363 C101.89961524 -0.09046137 109.85307865 -0.09577154 117.80657184 -0.09513456 C122.55167314 -0.09488073 127.29672245 -0.09766677 132.0418129 -0.10831261 C136.51841658 -0.11807964 140.99491962 -0.11801454 145.4715271 -0.11079597 C147.10358708 -0.10976012 148.73565359 -0.11205263 150.36770248 -0.11815643 C163.99464833 -0.16576372 177.28200582 0.67494712 190.38839722 4.75871277 C191.22685181 5.0159613 192.0653064 5.27320984 192.9291687 5.53825378 C201.23667017 8.20140904 208.87645956 11.83447405 216.45089722 16.13371277 C217.92429565 16.96515808 217.92429565 16.96515808 219.42745972 17.81340027 C244.74831544 33.06429031 263.17601441 57.47927759 270.71139526 86.02702332 C277.39376916 113.60717812 272.96847744 140.82494751 258.51339722 165.19621277 C243.50547381 188.07378803 221.34867264 206.71203579 195.45089722 216.13371277 C194.46089722 216.13371277 193.47089722 216.13371277 192.45089722 216.13371277 C192.73062378 216.62323425 193.01035034 217.11275574 193.29855347 217.61711121 C193.6994519 218.31868347 194.10035034 219.02025574 194.51339722 219.74308777 C194.97214233 220.54585144 195.43088745 221.34861511 195.90353394 222.17570496 C196.95738434 224.02002631 198.01108951 225.86443066 199.06466675 227.70890808 C202.14579768 233.10242999 205.22980911 238.49427828 208.31808472 243.88371277 C215.42306403 256.28776776 222.47718605 268.71717629 229.44699097 281.19792175 C234.49474536 290.23055628 239.61951066 299.21739244 244.76730347 308.19328308 C246.69738494 311.56420844 248.6213406 314.93860738 250.54464722 318.31340027 C251.61896959 320.19742795 252.69339419 322.08139729 253.76785278 323.96534729 C254.46136266 325.18180002 255.15453096 326.39844758 255.84732056 327.61531067 C256.82610849 329.33428265 257.80645645 331.05236605 258.78683472 332.77043152 C259.40228149 333.84961853 260.01772827 334.92880554 260.65182495 336.04069519 C262.7971095 339.72893104 265.04378167 343.34781861 267.33932495 346.94425964 C269.20666389 350.62233906 269.52454032 354.1604496 268.45089722 358.13371277 C266.26930576 360.88940723 264.57912228 362.56960024 261.45089722 364.13371277 C259.45087885 364.24563851 257.44713087 364.29302056 255.44406128 364.31071472 C254.18225037 364.32354996 252.92043945 364.33638519 251.62039185 364.34960938 C250.23577263 364.35777788 248.85114897 364.3652214 247.46652222 364.37199402 C246.76976128 364.37606955 246.07300034 364.38014507 245.35512543 364.3843441 C241.66537268 364.405208 237.97565714 364.41950681 234.28585815 364.42887878 C230.48155811 364.43992837 226.6778454 364.47430959 222.87375259 364.51405048 C219.943135 364.54024888 217.01265646 364.54857355 214.08193207 364.55216026 C212.68014318 364.55702002 211.27836025 364.56861675 209.8766861 364.58719826 C207.90970543 364.61164746 205.94243871 364.60819922 203.97531128 364.60368347 C202.85771423 364.60954971 201.74011719 364.61541595 200.58865356 364.62145996 C196.67607705 364.01327118 194.52828588 362.58451109 191.45089722 360.13371277 C189.94468157 357.83226115 188.74454439 355.75083632 187.56808472 353.29777527 C187.23205231 352.63111847 186.8960199 351.96446167 186.54980469 351.27760315 C185.4610636 349.11137549 184.39390737 346.93522409 183.32589722 344.75871277 C182.18712175 342.48361609 181.04251662 340.21151648 179.89749146 337.93955994 C179.1372376 336.43038959 178.37872766 334.92033946 177.62197876 333.40940857 C174.69610729 327.575917 171.6250716 321.83606963 168.45089722 316.13371277 C163.42906031 307.06149921 158.67617699 297.86244887 153.95089722 288.63371277 C149.16178504 279.28075313 144.33288853 269.96390196 139.26339722 260.75871277 C132.46067355 248.32362649 125.97553247 235.71693791 119.45089722 223.13371277 C89.25589722 222.63871277 89.25589722 222.63871277 58.45089722 222.13371277 C58.49730347 231.82101746 58.54370972 241.50832214 58.59152222 251.48918152 C58.61195536 257.61874306 58.6313762 263.74827998 58.64620972 269.87785339 C58.66995385 279.61141886 58.6978826 289.34484592 58.75265503 299.07829285 C58.79252476 306.1668034 58.81833046 313.25520178 58.8272512 320.34382135 C58.83246578 324.09722644 58.84472026 327.85031065 58.87381744 331.6036129 C58.90603744 335.79372261 58.90685655 339.98327451 58.90499878 344.17350769 C58.91937988 345.41788101 58.93376099 346.66225433 58.94857788 347.94433594 C58.94307922 349.08712006 58.93758057 350.22990417 58.93191528 351.40731812 C58.93560246 352.39824557 58.93928963 353.38917303 58.94308853 354.41012859 C58.3081393 357.92367631 56.88988454 359.57075006 54.45089722 362.13371277 C51.08692468 364.37636112 49.91347799 364.39766848 45.97311401 364.44010925 C44.8515239 364.45609665 43.72993378 364.47208405 42.57435608 364.48855591 C40.75560722 364.49659996 40.75560722 364.49659996 38.90011597 364.50480652 C37.65341629 364.51383499 36.40671661 364.52286346 35.12223816 364.53216553 C32.48172572 364.54668728 29.84164647 364.55635446 27.20114136 364.55924988 C24.49761815 364.56355899 21.79504649 364.58441255 19.09176636 364.62077332 C15.19425363 364.66956065 11.29790238 364.68503421 7.40011597 364.69230652 C5.59047615 364.721605 5.59047615 364.721605 3.74427795 364.75149536 C-5.60570918 364.7012528 -5.60570918 364.7012528 -9.29592896 361.72380066 C-12.53480218 358.00062306 -12.67547247 356.27392508 -12.68611717 351.41988659 C-12.69119172 350.19631614 -12.69626626 348.97274569 -12.70149457 347.71209735 C-12.7020963 346.34190893 -12.70259536 344.97172047 -12.70300293 343.60153198 C-12.70701608 342.1555632 -12.71145406 340.70959555 -12.71628249 339.26362926 C-12.7282701 335.27584942 -12.73390148 331.2880817 -12.73846364 327.30028737 C-12.74441138 323.00501847 -12.7560232 318.70976411 -12.76675415 314.414505 C-12.7912959 304.03480851 -12.80590724 293.65510719 -12.81881422 283.2753906 C-12.82252464 280.34528198 -12.82649799 277.41517384 -12.83056688 274.4850657 C-12.85580019 256.30150177 -12.87786 238.11793712 -12.89029503 219.93435955 C-12.89322487 215.72094406 -12.89618652 211.50752859 -12.89920044 207.29411316 C-12.89994649 206.24684993 -12.90069254 205.1995867 -12.9014612 204.12058822 C-12.91412151 187.14617682 -12.94735273 170.17187 -12.98900227 153.19750752 C-13.03138317 135.78279824 -13.05498555 118.36814257 -13.06021559 100.95338184 C-13.06363392 91.17051699 -13.07543872 81.38781564 -13.10831833 71.60500145 C-13.13626714 63.27548191 -13.14734095 54.94615935 -13.13612287 46.61659654 C-13.13092304 42.36477132 -13.13390825 38.11335895 -13.15858841 33.86159325 C-13.1809843 29.97097231 -13.18041732 26.08106309 -13.16138454 22.1904305 C-13.15857086 20.78124886 -13.16425871 19.37201994 -13.17919748 17.96291467 C-13.28434237 7.40125098 -13.28434237 7.40125098 -11.43050694 4.20527613 C-10.07360268 2.82664204 -10.07360268 2.82664204 -7.54910278 1.13371277 C-5.67655583 -0.73883418 -2.49422216 0.00334935 0 0 Z " fill="#010103" transform="translate(56.549102783203125,351.8662872314453)"/>
<path d="M0 0 C1.31326803 0.43001985 2.62709111 0.85834751 3.94140625 1.28515625 C18.47937569 6.19360341 31.67881952 13.59720437 43 24 C43.48952148 24.44714355 43.97904297 24.89428711 44.48339844 25.35498047 C59.6992869 39.4082091 70.76028931 56.93314692 76 77 C76.26514404 77.98145996 76.53028809 78.96291992 76.8034668 79.97412109 C78.84681349 88.05818829 79.54501561 95.674363 79.5 104 C79.49033203 105.89250488 79.49033203 105.89250488 79.48046875 107.82324219 C78.94867011 135.39980082 68.02213077 159.16684815 49 179 C48.195625 179.845625 47.39125 180.69125 46.5625 181.5625 C45.716875 182.366875 44.87125 183.17125 44 184 C43.38769531 184.63035156 42.77539062 185.26070312 42.14453125 185.91015625 C30.76326751 197.01717267 16.13757696 204.47413412 1 209 C0.11054688 209.29261719 -0.77890625 209.58523438 -1.6953125 209.88671875 C-30.27499638 219.06984602 -60.17388684 214.30635263 -86.4375 200.875 C-112.23783025 187.18184521 -130.85934932 164.19801549 -140.1953125 136.64453125 C-148.92258425 107.96315759 -145.91551522 79.59702642 -132.125 53.125 C-128.72128127 46.83915241 -124.7230862 41.35283103 -120 36 C-119.31292969 35.18144531 -118.62585938 34.36289062 -117.91796875 33.51953125 C-90.39184834 1.52971564 -40.62730392 -14.66970141 0 0 Z " fill="#010103" transform="translate(469,507)"/>
<path d="M0 0 C1.14145981 -0.01583633 2.28291962 -0.03167267 3.45896912 -0.04798889 C4.68301956 -0.04302902 5.90707001 -0.03806915 7.16821289 -0.03295898 C9.06731163 -0.04225685 9.06731163 -0.04225685 11.004776 -0.05174255 C13.68082945 -0.05884308 16.3553783 -0.05761153 19.03125 -0.04296875 C22.44907646 -0.02579068 25.86522014 -0.04926833 29.28285885 -0.08445835 C32.55716283 -0.11178584 35.83132709 -0.10169224 39.10571289 -0.09545898 C40.32773911 -0.10871719 41.54976532 -0.1219754 42.80882263 -0.13563538 C52.27045102 -0.03203376 52.27045102 -0.03203376 55.78808594 2.62475586 C58.42334458 5.79836058 60.28460506 8.95854471 61.94555664 12.70141602 C62.27096939 13.40106979 62.59638214 14.10072357 62.93165588 14.82157898 C63.99465249 17.1151621 65.0363642 19.41776165 66.07836914 21.72094727 C66.82171216 23.334446 67.56660978 24.94722935 68.31298828 26.55932617 C69.85442977 29.89230629 71.38856225 33.22850825 72.91772461 36.56713867 C75.08698819 41.29358094 77.29505895 46.0008588 79.51977539 50.70141602 C79.86528946 51.43151886 80.21080353 52.1616217 80.56678772 52.91384888 C81.25311629 54.36367362 81.93954189 55.81345243 82.62606812 57.26318359 C88.21786803 69.08410703 93.70776302 80.94755632 99.09008789 92.86547852 C102.80400066 101.08733624 106.53139248 109.31313749 110.64086914 117.34594727 C112.20336914 120.53344727 112.20336914 120.53344727 112.20336914 122.53344727 C112.86336914 122.53344727 113.52336914 122.53344727 114.20336914 122.53344727 C114.5346582 121.39649414 114.86594727 120.25954102 115.20727539 119.08813477 C117.5304437 112.13083563 120.8356308 105.60904769 124.00979614 99.01062012 C125.93807129 95.0005903 127.84920416 90.98243953 129.75805664 86.96313477 C130.13956375 86.16004883 130.52107086 85.35696289 130.91413879 84.52954102 C134.32096514 77.33320786 137.56868197 70.07519484 140.76586914 62.78344727 C144.02151064 55.37027817 147.33445402 48.03285749 151.04833984 40.83789062 C153.29531074 36.44984522 155.38961688 31.99987353 157.44165039 27.51782227 C157.72954941 26.89036606 158.01744843 26.26290985 158.31407166 25.61643982 C159.76423947 22.45299293 161.20599369 19.28605531 162.63671875 16.11376953 C163.16918213 14.949021 163.70164551 13.78427246 164.25024414 12.58422852 C164.72300781 11.53920166 165.19577148 10.4941748 165.68286133 9.41748047 C167.57299417 5.83235855 169.49487973 2.38769197 173.20336914 0.53344727 C174.99426779 0.42227468 176.78923832 0.3742315 178.58349609 0.35644531 C180.27083611 0.33719246 180.27083611 0.33719246 181.99226379 0.31755066 C183.21306137 0.31016373 184.43385895 0.30277679 185.69165039 0.29516602 C186.94213669 0.28709427 188.19262299 0.27902252 189.48100281 0.27070618 C192.13157872 0.25685531 194.78202983 0.24584191 197.43261719 0.23828125 C200.82227663 0.22722515 204.21127806 0.19283506 207.60070515 0.15310955 C210.83928824 0.12062421 214.07792919 0.11616263 217.31665039 0.10766602 C219.13873772 0.08140388 219.13873772 0.08140388 220.99763489 0.05461121 C222.13198471 0.05753677 223.26633453 0.06046234 224.43505859 0.06347656 C225.92825371 0.0546772 225.92825371 0.0546772 227.45161438 0.04570007 C231.01227836 0.67682603 232.68640261 1.97315217 235.20336914 4.53344727 C235.97336473 10.37977965 234.82530376 14.47936981 232.19555664 19.73266602 C231.7200663 20.72915413 231.7200663 20.72915413 231.23497009 21.74577332 C230.19724443 23.91148553 229.13805561 26.06590766 228.07836914 28.22094727 C227.34476935 29.74190933 226.6126108 31.26356731 225.88183594 32.78588867 C224.0246349 36.6460224 222.15017418 40.49747056 220.27008057 44.34649658 C218.66479247 47.63762651 217.0721871 50.93483938 215.48071289 54.23266602 C213.74987616 57.81846812 212.01812379 61.40379871 210.28051758 64.98632812 C206.3768384 73.04666172 202.57707419 81.15001898 198.82836914 89.28344727 C193.74708608 100.30706274 188.49313551 111.23636373 183.17315674 122.14611816 C178.58280091 131.56451109 174.08521235 141.01577784 169.70336914 150.53344727 C164.66582539 161.47534403 159.45209113 172.32064883 154.17260742 183.1472168 C149.58243694 192.56524355 145.08504069 202.01615071 140.70336914 211.53344727 C135.99373879 221.76309324 131.13908051 231.91151498 126.20336914 242.03344727 C121.16621287 252.36433092 116.21071232 262.72415379 111.39086914 273.15844727 C110.60486328 274.85517578 110.60486328 274.85517578 109.80297852 276.58618164 C107.74805463 281.0234765 105.69421657 285.46112487 103.65893555 289.9074707 C102.18540658 293.12167337 100.69602632 296.32809268 99.20336914 299.53344727 C98.77048584 300.48944824 98.33760254 301.44544922 97.89160156 302.43041992 C97.47885986 303.31004395 97.06611816 304.18966797 96.64086914 305.09594727 C96.28895508 305.86036133 95.93704102 306.62477539 95.57446289 307.41235352 C93.63235253 310.41681485 92.38353135 311.75104962 89.20336914 313.53344727 C85.01678154 314.13079458 80.86387356 314.09359045 76.64086914 314.06469727 C75.41682373 314.06852417 74.19277832 314.07235107 72.93164062 314.07629395 C70.34610165 314.07901348 67.76053518 314.07164953 65.17504883 314.05493164 C61.21771905 314.03352489 57.26220496 314.05473433 53.30493164 314.08032227 C50.7919068 314.077679 48.27888309 314.07255405 45.76586914 314.06469727 C44.5824292 314.07279419 43.39898926 314.08089111 42.1796875 314.0892334 C33.98401874 313.99568645 33.98401874 313.99568645 29.98071289 311.62524414 C27.04417762 308.16916801 26.89075157 306.03744344 27.20336914 301.53344727 C28.28222656 298.63452148 28.28222656 298.63452148 29.80883789 295.58813477 C30.65623535 293.87025757 30.65623535 293.87025757 31.52075195 292.11767578 C31.82517212 291.51400177 32.12959229 290.91032776 32.4432373 290.2883606 C33.73866753 287.71848435 35.00753742 285.13580571 36.27780151 282.55342102 C36.93747217 281.21255025 37.59839505 279.87229485 38.26052856 278.53263855 C41.59841296 271.76946624 44.78959443 264.9423824 47.95336914 258.09594727 C48.48881348 256.93981934 49.02425781 255.78369141 49.57592773 254.5925293 C53.3421832 246.44212609 57.042804 238.26287705 60.73632812 230.0793457 C63.21920347 224.6095565 65.80745899 219.20746765 68.51586914 213.84594727 C68.83974609 213.20254395 69.16362305 212.55914063 69.49731445 211.89624023 C70.93951352 209.03355745 72.38693058 206.17375426 73.84399414 203.31860352 C74.31321289 202.35825195 74.78243164 201.39790039 75.26586914 200.40844727 C75.6693457 199.60149414 76.07282227 198.79454102 76.48852539 197.96313477 C78.07227299 192.58012379 75.65198338 187.95469553 73.21118164 183.19360352 C72.90941513 182.59846451 72.60764862 182.0033255 72.29673767 181.39015198 C71.6498633 180.1161875 70.99942621 178.84402679 70.34573364 177.57354736 C68.61685287 174.21286909 66.91393943 170.83903966 65.20727539 167.46704102 C64.86444016 166.7914917 64.52160492 166.11594238 64.16838074 165.41992188 C60.6805114 158.53438267 57.34989953 151.57701272 54.05737305 144.59619141 C51.62348088 139.45117232 49.12268923 134.34293738 46.57202148 129.25488281 C46.2231636 128.55808316 45.87430571 127.86128351 45.51487637 127.14336872 C44.41150529 124.93982848 43.30748683 122.73661349 42.20336914 120.53344727 C41.51028884 119.14991287 40.81722922 117.76636812 40.12419128 116.3828125 C38.71190518 113.56361547 37.29933333 110.74456182 35.88661194 107.92558289 C33.1029576 102.37064246 30.32139415 96.81465545 27.54002476 91.25857067 C25.44473972 87.07321331 23.34870216 82.8882363 21.25097656 78.70410156 C4.20026251 44.69232138 4.20026251 44.69232138 -1.18528748 33.06474304 C-2.98454751 29.18408496 -4.89544078 25.39283152 -6.93315125 21.63392639 C-10.14120681 15.65600546 -12.10671917 11.30223685 -10.79663086 4.53344727 C-7.30289337 1.00090918 -4.92067963 0.03046577 0 0 Z " fill="#010103" transform="translate(545.796630859375,507.466552734375)"/>
<path d="M0 0 C0.91978638 -0.00807175 1.83957275 -0.01614349 2.78723145 -0.02445984 C4.72337013 -0.03819372 6.65953194 -0.04896289 8.59570312 -0.05688477 C10.53848583 -0.06835662 12.48123822 -0.08873157 14.42382812 -0.1184082 C36.56747751 -0.45522952 59.42281582 2.5224746 76.63671875 17.80078125 C95.09220951 36.58744721 98.15179357 61.49937796 98.20825195 86.61669922 C98.21482315 87.90749893 98.22139435 89.19829865 98.22816467 90.5282135 C98.24895756 94.76228647 98.25952987 98.99635888 98.26953125 103.23046875 C98.27358534 104.69612775 98.27770245 106.16178657 98.28188133 107.62744522 C98.30086273 114.50397576 98.31511937 121.38049592 98.3234933 128.25704753 C98.33329951 136.17572323 98.35973589 144.09412196 98.39999419 152.01269996 C98.43013691 158.15307883 98.4449596 164.293378 98.44827431 170.43382943 C98.45062285 174.09427605 98.45956074 177.75442425 98.48473549 181.41479111 C98.51231382 185.48878368 98.50819091 189.56215055 98.5012207 193.63623047 C98.52043579 195.44881599 98.52043579 195.44881599 98.54003906 197.29801941 C98.4889195 205.47014337 98.4889195 205.47014337 96.12043762 209.44532776 C90.46872522 214.29566163 84.83434322 213.63899148 77.65625 213.67578125 C75.97015625 213.72508789 75.97015625 213.72508789 74.25 213.77539062 C64.99400137 213.83556556 64.99400137 213.83556556 61.484375 211.19921875 C58.64923345 207.77718484 56.87047226 204.49705911 55.15625 200.42578125 C54.84945312 199.73291016 54.54265625 199.04003906 54.2265625 198.32617188 C53.4807115 196.6363532 52.75395251 194.93812888 52.03125 193.23828125 C48.49709863 195.56737814 45.05158282 197.96323229 41.65625 200.48828125 C27.61280859 210.27040935 10.34291069 217.86397507 -6.96875 218.23828125 C-7.65775391 218.26792969 -8.34675781 218.29757812 -9.05664062 218.328125 C-30.72747428 219.22287453 -51.00136084 214.91942669 -67.8046875 200.3359375 C-80.69001582 187.84600734 -87.37389966 171.94776526 -88.96875 154.23828125 C-89.030625 153.56410156 -89.0925 152.88992188 -89.15625 152.1953125 C-90.47982562 135.08809765 -84.84633211 120.1310249 -73.78125 107.11328125 C-61.57020119 94.13015281 -46.18442092 87.23895099 -29.00537109 83.66455078 C-27.56132881 83.36230937 -26.1218067 83.03809465 -24.68603516 82.69873047 C-18.07019608 81.21138743 -11.73594921 80.92786921 -4.96875 80.98828125 C-3.87804199 80.99432373 -2.78733398 81.00036621 -1.66357422 81.0065918 C27.26835056 81.35683153 27.26835056 81.35683153 39.03125 87.23828125 C37.87006053 71.78972324 37.87006053 71.78972324 30.71875 58.36328125 C17.53007897 47.93502974 -3.23977579 52.13496599 -18.71313477 53.88305664 C-26.91519912 54.87618327 -35.00965257 56.20994207 -43.08300781 57.96777344 C-48.23336744 59.06001589 -53.72301899 60.20669331 -58.96875 59.23828125 C-63.54290574 55.53090413 -63.8260968 49.72993404 -64.96875 44.23828125 C-65.14083984 43.41215332 -65.31292969 42.58602539 -65.49023438 41.73486328 C-66.05834609 38.96756122 -66.61052327 36.19758107 -67.15625 33.42578125 C-67.42489868 32.08314209 -67.42489868 32.08314209 -67.69897461 30.71337891 C-70.10991813 18.08798897 -70.10991813 18.08798897 -66.94921875 12.96484375 C-63.93035245 9.78453511 -60.46450182 8.62140725 -56.28125 7.61328125 C-55.518125 7.41508789 -54.755 7.21689453 -53.96875 7.01269531 C-36.48103441 2.70961569 -18.01678545 0.15577481 0 0 Z " fill="#010103" transform="translate(856.96875,502.76171875)"/>
<path d="M0 0 C1.14176193 -0.01283524 2.28352386 -0.02567047 3.45988464 -0.03889465 C5.32692802 -0.04997505 5.32692802 -0.04997505 7.23168945 -0.0612793 C9.13927788 -0.07338692 9.13927788 -0.07338692 11.08540344 -0.08573914 C13.78483747 -0.09960296 16.48414841 -0.11061173 19.18359375 -0.11816406 C22.63259297 -0.12919875 26.08094166 -0.16355592 29.52971172 -0.20333576 C32.82613967 -0.23586586 36.12262546 -0.24028779 39.41918945 -0.2487793 C40.65376389 -0.26628738 41.88833832 -0.28379547 43.1603241 -0.30183411 C53.91577472 -0.27465037 53.91577472 -0.27465037 58.6574707 4.17700195 C59.89300515 6.64807084 59.78169097 8.26561865 59.78051853 11.03022194 C59.78250958 12.06180573 59.78450063 13.09338952 59.78655201 14.15623343 C59.78363917 15.29823749 59.78072633 16.44024156 59.77772522 17.61685181 C59.77857964 18.8232086 59.77943407 20.0295654 59.78031439 21.27247846 C59.78168112 24.63144559 59.77853911 27.99035499 59.77353632 31.34931517 C59.76923093 34.9675824 59.77067831 38.58584775 59.7714386 42.20411682 C59.77196378 48.47650198 59.76881762 54.74887676 59.76320076 61.02125931 C59.75508493 70.09014942 59.75247045 79.1590345 59.75121277 88.22792785 C59.74902238 102.94044758 59.74236265 117.65296179 59.73291016 132.36547852 C59.7237357 146.66007459 59.71665503 160.95466916 59.71240234 175.24926758 C59.71213962 176.12990583 59.7118769 177.01054408 59.71160621 177.91786833 C59.71030121 182.33562807 59.70903749 186.75338783 59.70779431 191.17114758 C59.69742211 227.83976962 59.67980414 264.50838535 59.6574707 301.17700195 C60.78713509 301.1670092 60.78713509 301.1670092 61.93962097 301.15681458 C69.04593139 301.096639 76.15215316 301.05099489 83.25864697 301.02156544 C86.91196269 301.00592663 90.56506742 300.98472147 94.21826172 300.95068359 C97.74552286 300.91802571 101.27258138 300.90013551 104.79998207 300.89237022 C106.79691379 300.88415062 108.79376429 300.86074135 110.79057312 300.83711243 C112.01146133 300.83688583 113.23234955 300.83665924 114.49023438 300.83642578 C115.56278976 300.82976395 116.63534515 300.82310211 117.74040222 300.8162384 C121.11145256 301.2331474 122.94548914 302.1592992 125.6574707 304.17700195 C127.79710647 307.3864556 127.91207976 308.24298548 127.93212891 311.9362793 C127.94166092 312.90093109 127.95119293 313.86558289 127.96101379 314.85946655 C127.95964668 316.42043564 127.95964668 316.42043564 127.95825195 318.01293945 C127.96253708 319.08444244 127.9668222 320.15594543 127.97123718 321.25991821 C127.97698318 323.52784519 127.97747877 325.79579059 127.97314453 328.0637207 C127.96998937 331.53148951 127.99342448 334.99840146 128.01879883 338.46606445 C128.02107228 340.66918838 128.0217751 342.87231459 128.02075195 345.07543945 C128.0299617 346.11203705 128.03917145 347.14863464 128.04866028 348.21664429 C127.99019482 357.33035529 127.99019482 357.33035529 124.6574707 361.17700195 C121.56261888 363.95284714 119.60458636 364.55448104 115.47134399 364.57141113 C114.42274704 364.58276093 113.37415009 364.59411072 112.29377747 364.60580444 C111.14874252 364.60287384 110.00370758 364.59994324 108.82397461 364.59692383 C107.61383194 364.60539337 106.40368927 364.61386292 105.15687561 364.62258911 C101.84051835 364.64198079 98.52472376 364.64773608 95.2083478 364.6458416 C92.43754924 364.64572185 89.66680326 364.65428776 86.89601934 364.66261911 C80.35715752 364.68185194 73.81842337 364.68473775 67.27954102 364.67797852 C60.54016365 364.67134 53.80133393 364.69419402 47.06206763 364.73129225 C41.27082629 364.76201177 35.47976089 364.77334681 29.68843973 364.76945543 C26.23181882 364.76738992 22.77562392 364.77283529 19.31908035 364.79734802 C15.46242157 364.8237947 11.60647706 364.80986994 7.74975586 364.79223633 C6.60876938 364.80549957 5.4677829 364.81876282 4.29222107 364.83242798 C-4.34097418 364.74063856 -4.34097418 364.74063856 -8.03579712 361.8260498 C-11.37474814 357.99160335 -11.4687303 355.27084902 -11.47954369 350.35574532 C-11.48461823 349.13366721 -11.48969277 347.91158911 -11.49492109 346.65247834 C-11.49552277 345.28916244 -11.49602185 343.92584649 -11.49642944 342.56253052 C-11.50044379 341.11982348 -11.50488197 339.67711757 -11.509709 338.23441303 C-11.52168297 334.26029411 -11.52732483 330.28618734 -11.53189015 326.31205392 C-11.53784293 322.02975431 -11.54945339 317.74746925 -11.56018066 313.46517944 C-11.58470907 303.12001291 -11.59933089 292.77484156 -11.61224073 282.4296549 C-11.61595184 279.50908538 -11.61992512 276.58851634 -11.6239934 273.66794729 C-11.64922512 255.54085926 -11.67128334 237.41377049 -11.68372154 219.28666878 C-11.68665134 215.08751548 -11.68961299 210.88836222 -11.69262695 206.68920898 C-11.693373 205.64550187 -11.69411905 204.60179476 -11.69488771 203.52646016 C-11.70754995 186.60707766 -11.74078477 169.68780004 -11.78242879 152.76846661 C-11.82480944 135.40796626 -11.84841195 118.04751968 -11.85364211 100.68696773 C-11.85706023 90.93541669 -11.86886287 81.18402967 -11.90174484 71.43252945 C-11.92969315 63.13048233 -11.94076763 54.82863284 -11.92954938 46.52654232 C-11.92434963 42.28888649 -11.92733432 38.05164489 -11.95201492 33.81404877 C-11.97441112 29.93641991 -11.97384362 26.05950516 -11.95481105 22.1818646 C-11.95199744 20.77742342 -11.95768488 19.3729348 -11.97262399 17.96857025 C-12.07776833 7.44275012 -12.07776833 7.44275012 -10.22393346 4.25128722 C-8.86702919 2.87272453 -8.86702919 2.87272453 -6.3425293 1.17700195 C-4.62379158 -0.54173576 -2.34651397 0.02286982 0 0 Z " fill="#000002" transform="translate(1005.342529296875,351.822998046875)"/>
<path d="M0 0 C1.31134666 -0.00934319 1.31134666 -0.00934319 2.64918518 -0.01887512 C3.5898735 -0.00966537 4.53056183 -0.00045563 5.49975586 0.0090332 C6.95121254 0.00828545 6.95121254 0.00828545 8.43199158 0.00752258 C10.47714289 0.00986301 12.52229707 0.01958967 14.56738281 0.03613281 C17.70590827 0.05974905 20.84358589 0.05669057 23.98217773 0.05004883 C25.96720886 0.05562467 27.9522364 0.06273396 29.93725586 0.0715332 C30.87996841 0.0706218 31.82268097 0.06971039 32.79396057 0.06877136 C33.66503952 0.07830338 34.53611847 0.08783539 35.43359375 0.09765625 C36.5858419 0.10456734 36.5858419 0.10456734 37.7613678 0.11161804 C39.65209961 0.37231445 39.65209961 0.37231445 41.65209961 2.37231445 C41.91101933 5.36148071 41.91101933 5.36148071 41.92384338 9.28100586 C41.92893022 10.00000879 41.93401706 10.71901173 41.93925804 11.45980263 C41.95398042 13.88121432 41.95445365 16.30242355 41.95507812 18.72387695 C41.96273521 20.45489907 41.97128079 22.18591746 41.98065186 23.91693115 C41.99896176 27.65033379 42.01098033 31.38368602 42.01819038 35.11712646 C42.02964795 41.01555873 42.05509128 46.91387924 42.08250427 52.81225586 C42.12419473 62.13835427 42.15659092 71.46445799 42.18497843 80.79060555 C42.23591877 97.49900483 42.29800259 114.20735775 42.37031883 130.91567802 C42.39529072 136.78419247 42.4147001 142.65269212 42.42970097 148.52124023 C42.4398803 152.16618428 42.45402625 155.81110537 42.46917725 159.4560318 C42.47535096 161.15159822 42.47980002 162.84717189 42.48243523 164.5427475 C42.48622663 166.8497489 42.49602333 169.15664815 42.50733948 171.46362305 C42.51119439 172.75706635 42.5150493 174.05050964 42.51902103 175.38314819 C42.44565494 178.29858368 42.44565494 178.29858368 43.65209961 180.37231445 C59.67203498 180.39564362 75.69196487 180.41329371 91.71191311 180.42412663 C99.14974471 180.42928955 106.58756578 180.43633217 114.02539062 180.44775391 C120.50591303 180.45770087 126.9864278 180.46416791 133.46695763 180.46640295 C136.90040503 180.46771004 140.33383061 180.47079576 143.76727104 180.47804451 C147.59403782 180.48605861 151.42078296 180.48630558 155.24755859 180.48583984 C156.96737694 180.49123276 156.96737694 180.49123276 158.72193909 180.49673462 C159.7582547 180.49535995 160.79457031 180.49398529 161.86228943 180.49256897 C162.76841193 180.49349076 163.67453444 180.49441256 164.6081152 180.49536228 C166.64605396 180.59947279 166.64605396 180.59947279 167.65209961 179.37231445 C167.75595981 177.74707649 167.79006807 176.11733904 167.79685974 174.48880005 C167.80375824 173.43157745 167.81065674 172.37435486 167.81776428 171.28509521 C167.82037766 170.11521057 167.82299103 168.94532593 167.82568359 167.73999023 C167.83571411 165.90357468 167.83571411 165.90357468 167.84594727 164.03005981 C167.86003691 161.36122407 167.87235681 158.6924437 167.88189507 156.0235939 C167.89731342 151.80522773 167.92126237 147.58693735 167.9467926 143.36862183 C168.0180859 131.3713662 168.0777918 119.37406695 168.12890625 107.37670898 C168.15719303 100.75510865 168.19256613 94.13358349 168.23556 87.51206195 C168.26236588 83.31722863 168.28025054 79.12248041 168.29159725 74.92757821 C168.30285226 71.7061443 168.32697852 68.48480243 168.34912109 65.26342773 C168.34971024 64.09759155 168.35029938 62.93175537 168.35090637 61.73059082 C168.36548386 60.13629745 168.36548386 60.13629745 168.38035583 58.50979614 C168.38458777 57.58469301 168.38881971 56.65958988 168.39317989 55.70645332 C168.65209961 53.37231445 168.65209961 53.37231445 170.65209961 50.37231445 C172.58752441 49.99809265 172.58752441 49.99809265 174.97827148 50 C176.31976257 49.99065681 176.31976257 49.99065681 177.68835449 49.98112488 C178.65607788 49.99033463 179.62380127 49.99954437 180.62084961 50.0090332 C182.10772278 50.00828545 182.10772278 50.00828545 183.62463379 50.00752258 C185.72283938 50.00986571 187.82104763 50.01960822 189.91918945 50.03613281 C193.13900773 50.05971855 196.35799823 50.05669639 199.57788086 50.05004883 C201.61304207 50.05562552 203.64819978 50.06273534 205.68334961 50.0715332 C206.651073 50.0706218 207.61879639 50.06971039 208.61584473 50.06877136 C209.51017212 50.07830338 210.40449951 50.08783539 211.32592773 50.09765625 C212.50934753 50.10456734 212.50934753 50.10456734 213.7166748 50.11161804 C215.65209961 50.37231445 215.65209961 50.37231445 217.65209961 52.37231445 C217.90378189 55.22092438 217.90378189 55.22092438 217.90606689 58.93933105 C217.91074687 59.9627075 217.91074687 59.9627075 217.91552138 61.00675821 C217.92352923 63.30382715 217.91716705 65.60063395 217.91088867 67.89770508 C217.9135973 69.5400559 217.91715751 71.18240551 217.92150879 72.82475281 C217.93065031 77.29366453 217.92708131 81.76248423 217.92075062 86.23139763 C217.91569972 90.90032074 217.92037953 95.56923577 217.92352295 100.23815918 C217.92716526 108.07992981 217.92235656 115.92166281 217.9128418 123.76342773 C217.90195674 132.83955923 217.90548213 141.91560089 217.91649461 150.99173021 C217.92555995 158.77348619 217.92685646 166.55521507 217.92161727 174.33697462 C217.91849342 178.98941998 217.91809957 183.64182307 217.92469025 188.29426575 C217.93045217 192.66743504 217.92648809 197.0404881 217.91490173 201.41364479 C217.91224894 203.02213663 217.91303073 204.63063819 217.91742706 206.23912621 C217.92285972 208.42798381 217.91607658 210.61646453 217.90606689 212.80529785 C217.90493582 214.64590916 217.90493582 214.64590916 217.90378189 216.52370453 C217.65209961 219.37231445 217.65209961 219.37231445 215.65209961 221.37231445 C212.76327019 221.57243127 209.96996151 221.64588984 207.07972717 221.63301086 C206.1817535 221.63683641 205.28377983 221.64066196 204.35859483 221.64460343 C201.33145262 221.65497199 198.30449872 221.650934 195.27734375 221.64697266 C193.11445438 221.651317 190.95156655 221.65649921 188.78868103 221.66246033 C182.90033883 221.67589144 177.01206065 221.67642444 171.1237061 221.67389703 C166.21535993 221.6728301 161.30702686 221.67770353 156.39868349 221.68250245 C144.82307076 221.69361186 133.24749048 221.69402699 121.671875 221.68798828 C109.71352727 221.68194602 97.75529713 221.69426268 85.79696947 221.71555835 C75.54473018 221.73314727 65.2925284 221.73918 55.04027456 221.73592061 C48.91057131 221.73410328 42.78095193 221.73678856 36.65126228 221.75063515 C30.88849704 221.76316487 25.12591571 221.76131559 19.36315346 221.74822426 C17.24389841 221.7458483 15.12463061 221.74862934 13.00539017 221.75684738 C10.12052864 221.76723063 7.23629393 221.75928232 4.35145569 221.74653625 C3.50554983 221.75391054 2.65964397 221.76128482 1.78810459 221.76888257 C-3.89191507 221.71579736 -3.89191507 221.71579736 -6.06176633 220.08129996 C-8.30300487 217.10319348 -7.75789714 213.45356984 -7.72885132 209.86950684 C-7.73353129 208.9910965 -7.73821126 208.11268617 -7.74303305 207.20765734 C-7.7550368 204.25262562 -7.74550484 201.29805306 -7.73608398 198.34301758 C-7.74014729 196.2292402 -7.74548781 194.11546494 -7.75201416 192.00169373 C-7.76572215 186.25180061 -7.76037472 180.5020685 -7.7508769 174.75217247 C-7.74329834 168.74375337 -7.75032089 162.73534834 -7.7550354 156.72692871 C-7.76049822 146.63555417 -7.75328753 136.54424542 -7.73901367 126.45288086 C-7.72268619 114.77454687 -7.72797432 103.09636998 -7.74449289 91.4180398 C-7.75809276 81.40356425 -7.76003475 71.38913609 -7.75217688 61.37465429 C-7.74749212 55.38805407 -7.74689754 49.40152777 -7.75678635 43.41493225 C-7.76543193 37.787569 -7.7594782 32.16040893 -7.74210358 26.5330677 C-7.73812584 24.46380514 -7.73929464 22.39452557 -7.74589157 20.3252697 C-7.75404638 17.50832043 -7.74385916 14.69202902 -7.72885132 11.87512207 C-7.73888957 10.63646857 -7.73888957 10.63646857 -7.74913061 9.37279177 C-7.69115434 3.79208689 -7.69115434 3.79208689 -5.95041239 1.66329718 C-3.8629096 -0.01839384 -2.66090736 -0.00217806 0 0 Z " fill="#FDFDFD" transform="translate(538.347900390625,120.627685546875)"/>
<path d="M0 0 C16.12875 -0.061875 32.2575 -0.12375 48.875 -0.1875 C53.95245605 -0.21481201 59.02991211 -0.24212402 64.26123047 -0.27026367 C70.50024414 -0.28381348 70.50024414 -0.28381348 73.42849731 -0.28633118 C75.45724465 -0.29091348 77.48598423 -0.30141367 79.51467896 -0.31672668 C82.60221372 -0.33885067 85.68925271 -0.34171254 88.77685547 -0.34057617 C89.66834227 -0.3513705 90.55982906 -0.36216482 91.47833061 -0.37328625 C104.44053265 -0.30989669 117.8824877 5.35260046 127.3828125 14.21484375 C139.4749421 27.56291918 143.04525408 40.03757918 142.23095703 57.63525391 C141.68486198 63.22666683 139.56297313 68.06521471 137 73 C136.61585938 73.74378906 136.23171875 74.48757813 135.8359375 75.25390625 C130.24472792 84.971961 122.67592962 91.52840344 113 97 C111.948125 97.598125 110.89625 98.19625 109.8125 98.8125 C102.84909041 101.75260627 96.46019658 102.28675713 89.00390625 102.22705078 C87.53050026 102.22741239 87.53050026 102.22741239 86.02732849 102.2277813 C82.872291 102.2262978 79.71749479 102.21110939 76.5625 102.1953125 C74.60481886 102.19236908 72.64713615 102.19033048 70.68945312 102.18920898 C63.45961129 102.17875634 56.22980323 102.15083379 49 102.125 C24.745 102.063125 24.745 102.063125 0 102 C0 68.34 0 34.68 0 0 Z " fill="#FEFEFE" transform="translate(116,415)"/>
<path d="M0 0 C0.72123047 -0.01224609 1.44246094 -0.02449219 2.18554688 -0.03710938 C15.83931353 -0.07384597 29.0222681 5.62006134 38.6875 15.1875 C51.35003043 29.85289113 54.03236597 44.38869235 52.6875 63.1875 C50.28960153 76.149854 42.45050977 88.19741497 31.8125 95.875 C30.11731789 96.99925282 28.40968315 98.105062 26.6875 99.1875 C26.05070312 99.59097656 25.41390625 99.99445313 24.7578125 100.41015625 C12.81429642 107.15081017 -0.70171256 107.27305357 -13.65234375 104.28125 C-27.46931271 100.15237987 -38.08603749 91.26378525 -45.06640625 78.70703125 C-51.70894161 65.27619957 -54.03594519 50.18108626 -49.27734375 35.6640625 C-44.1285586 22.44815245 -35.20953286 11.05385715 -22.25390625 4.68359375 C-14.62280448 1.40511551 -8.31325876 0.00731157 0 0 Z " fill="#FDFDFD" transform="translate(435.3125,558.8125)"/>
<path d="M0 0 C1.12535156 0.00580078 1.12535156 0.00580078 2.2734375 0.01171875 C3.02367187 0.00785156 3.77390625 0.00398437 4.546875 0 C10.14682697 0.01010822 10.14682697 0.01010822 11.2734375 1.13671875 C11.43130058 2.98846581 11.52451106 4.84580985 11.58984375 6.703125 C11.63173828 7.82783203 11.67363281 8.95253906 11.71679688 10.11132812 C11.75611328 11.29533203 11.79542969 12.47933594 11.8359375 13.69921875 C11.87912109 14.88708984 11.92230469 16.07496094 11.96679688 17.29882812 C12.07327296 20.24466659 12.17528591 23.19059305 12.2734375 26.13671875 C12.86729248 25.9759082 13.46114746 25.81509766 14.07299805 25.64941406 C21.79060806 23.85123576 30.39816672 24.12614413 37.2734375 28.13671875 C38.2840625 28.69359375 39.2946875 29.25046875 40.3359375 29.82421875 C45.91916535 34.21952578 49.40560416 39.26514838 51.2734375 46.13671875 C52.37610464 56.24022692 50.85567563 64.82824876 44.5859375 72.94921875 C38.68601723 79.11200675 33.28994453 81.44338355 24.7109375 81.69921875 C16.63506474 81.42408882 11.5062471 79.33072675 5.2734375 74.13671875 C4.6134375 76.11671875 3.9534375 78.09671875 3.2734375 80.13671875 C1.79436858 80.16361091 0.31516267 80.18306496 -1.1640625 80.19921875 C-2.39962891 80.21662109 -2.39962891 80.21662109 -3.66015625 80.234375 C-5.7265625 80.13671875 -5.7265625 80.13671875 -6.7265625 79.13671875 C-6.82686107 76.7081484 -6.86274675 74.30800262 -6.85595703 71.87890625 C-6.85770935 71.11958801 -6.85946167 70.36026978 -6.86126709 69.57794189 C-6.8656858 67.05584459 -6.86274756 64.53381682 -6.859375 62.01171875 C-6.86004803 60.26676419 -6.86101805 58.52180971 -6.86227417 56.77685547 C-6.86375117 53.1148998 -6.86159653 49.45296847 -6.85693359 45.79101562 C-6.8512363 41.08627383 -6.8545153 36.38158907 -6.86050606 31.67684937 C-6.86411162 28.07217984 -6.86297311 24.46752393 -6.86037827 20.862854 C-6.85970898 19.12762444 -6.86053746 17.39239366 -6.86285782 15.65716553 C-6.86538427 13.23625388 -6.86154388 10.81543589 -6.85595703 8.39453125 C-6.85798126 7.67033997 -6.86000549 6.94614868 -6.86209106 6.20001221 C-6.83515277 -0.06910621 -6.2294887 0.01124456 0 0 Z " fill="#050507" transform="translate(377.7265625,739.86328125)"/>
<path d="M0 0 C3.22903101 1.6145155 5.21629853 2.99052739 7.5 5.75 C9.59562933 4.73537403 11.60397309 3.68574697 13.5859375 2.4609375 C20.76812341 -1.73071366 27.30071834 -2.38774436 35.5 -1.25 C42.34676516 0.67335204 46.47302003 4.09560894 50.34375 9.98046875 C54.05864784 18.87865311 53.80690511 28.25633005 53.75 37.75 C53.75713884 39.08463919 53.76494706 40.41927497 53.7734375 41.75390625 C53.77085937 43.01074219 53.76828125 44.26757812 53.765625 45.5625 C53.76336914 46.70332031 53.76111328 47.84414063 53.75878906 49.01953125 C53.5 51.75 53.5 51.75 51.5 53.75 C48.91935871 53.89497985 46.45056116 53.93677545 43.875 53.875 C43.16859375 53.86597656 42.4621875 53.85695313 41.734375 53.84765625 C39.98943902 53.82407603 38.24467705 53.78820461 36.5 53.75 C35.01420198 50.77840396 35.34363589 47.73568395 35.32421875 44.4765625 C35.30102025 42.99738161 35.2769029 41.51821489 35.25195312 40.0390625 C35.21683867 37.70628373 35.1874944 35.37402652 35.17407227 33.04101562 C35.1585839 30.78972192 35.11837386 28.53995272 35.07421875 26.2890625 C35.07612717 25.59414703 35.07803558 24.89923157 35.08000183 24.18325806 C34.99483465 20.80606068 34.70915448 19.02294673 32.63012695 16.30981445 C29.92537735 14.32922474 28.32676294 14.24395406 25 14.3125 C24.0615625 14.31378906 23.123125 14.31507813 22.15625 14.31640625 C18.94051268 14.84132808 17.75703505 15.39147213 15.5 17.75 C15.09771929 20.43359053 14.94217386 22.7252894 14.9609375 25.41015625 C14.94914459 26.15583359 14.93735168 26.90151093 14.92520142 27.66978455 C14.88989929 30.05090211 14.88076658 32.43114195 14.875 34.8125 C14.8586749 37.19716547 14.83668241 39.58143691 14.80337524 41.96592712 C14.78369611 43.44935441 14.77441569 44.93296276 14.77645874 46.41651917 C14.72345262 51.52654738 14.72345262 51.52654738 12.5 53.75 C9.27734375 53.98046875 9.27734375 53.98046875 5.4375 53.9375 C4.16777344 53.93105469 2.89804688 53.92460938 1.58984375 53.91796875 C-1.5 53.75 -1.5 53.75 -2.5 52.75 C-2.6105834 50.27776623 -2.66159476 47.82873883 -2.67578125 45.35546875 C-2.69898477 43.82746026 -2.72310233 42.29946543 -2.74804688 40.77148438 C-2.78314236 38.35529526 -2.81248829 35.93960611 -2.82592773 33.52319336 C-2.84141648 31.19583023 -2.88163566 28.86994177 -2.92578125 26.54296875 C-2.92387283 25.82304245 -2.92196442 25.10311615 -2.91999817 24.3613739 C-3.00384373 20.91838087 -3.25969111 19.06242645 -5.38574219 16.29833984 C-8.62772873 13.92412753 -11.18472503 14.14130623 -15.0859375 14.28515625 C-18.7391292 14.98860255 -20.34201065 16.8262725 -22.5 19.75 C-23.97352629 22.69705258 -23.70359324 25.4052449 -23.78125 28.69140625 C-23.79965942 29.37428207 -23.81806885 30.0571579 -23.83703613 30.76072693 C-23.91581002 33.68692188 -23.98359985 36.6133476 -24.05224609 39.53979492 C-24.10386152 41.67378516 -24.16114393 43.80757072 -24.21875 45.94140625 C-24.26418945 47.86255249 -24.26418945 47.86255249 -24.31054688 49.82250977 C-24.5 52.75 -24.5 52.75 -25.5 53.75 C-28.03049402 53.82313567 -30.53304837 53.84247527 -33.0625 53.8125 C-34.12887695 53.80573242 -34.12887695 53.80573242 -35.21679688 53.79882812 C-36.97790013 53.78700864 -38.73896036 53.76907263 -40.5 53.75 C-41.7236065 51.302787 -41.63338365 49.70054445 -41.64526367 46.96484375 C-41.65164352 45.9704126 -41.65802338 44.97598145 -41.66459656 43.95141602 C-41.66570938 42.87432373 -41.6668222 41.79723145 -41.66796875 40.6875 C-41.67296135 39.03415649 -41.67296135 39.03415649 -41.67805481 37.34741211 C-41.68312393 35.01383889 -41.68546314 32.68025841 -41.68530273 30.34667969 C-41.68749093 26.76485346 -41.70565169 23.18333425 -41.72460938 19.6015625 C-41.72754287 17.33854273 -41.72952796 15.07552148 -41.73046875 12.8125 C-41.73765427 11.73540771 -41.74483978 10.65831543 -41.75224304 9.54858398 C-41.74916641 8.55415283 -41.74608978 7.55972168 -41.74291992 6.53515625 C-41.74434494 5.65738525 -41.74576996 4.77961426 -41.74723816 3.87524414 C-41.5 1.75 -41.5 1.75 -39.5 -0.25 C-37.625 -0.55078125 -37.625 -0.55078125 -35.5 -0.5625 C-34.79875 -0.57925781 -34.0975 -0.59601562 -33.375 -0.61328125 C-32.75625 -0.49339844 -32.1375 -0.37351562 -31.5 -0.25 C-29.5 2.75 -29.5 2.75 -29.5 5.75 C-28.81292969 5.32847656 -28.12585938 4.90695312 -27.41796875 4.47265625 C-26.51691406 3.92480469 -25.61585938 3.37695312 -24.6875 2.8125 C-23.79417969 2.26722656 -22.90085938 1.72195313 -21.98046875 1.16015625 C-15.50155897 -2.52312946 -6.97865541 -2.41821581 0 0 Z " fill="#070709" transform="translate(182.5,766.25)"/>
<path d="M0 0 C0.19936709 4.12536512 0.34365032 8.24882865 0.43945312 12.37792969 C0.47942324 13.77881763 0.53382527 15.17937735 0.60351562 16.57910156 C1.16096062 28.07230579 1.16096062 28.07230579 -1.56591797 32.60009766 C-3.58905527 34.69854633 -5.5969828 36.35515968 -8 38 C-8.61842773 38.43473633 -9.23685547 38.86947266 -9.87402344 39.31738281 C-11.57209247 40.42145768 -13.34885024 41.4014951 -15.125 42.375 C-15.99705078 42.86806641 -15.99705078 42.86806641 -16.88671875 43.37109375 C-26.70770165 48.79790086 -38.28642172 50.11745286 -49.1875 47.125 C-56.02179719 43.95788667 -61.84376703 38.45355276 -64.51953125 31.26953125 C-66.15359737 23.55089374 -66.40290115 15.45634131 -62.5 8.4375 C-48.45066857 -11.31016166 -19.68535764 -9.19190088 0 0 Z " fill="#FDFDFD" transform="translate(894,628)"/>
<path d="M0 0 C6.4071279 4.10331268 10.20307727 8.51938805 12.62109375 15.7734375 C12.73849497 17.4580085 12.7961592 19.14732627 12.80859375 20.8359375 C12.82277344 21.71378906 12.83695313 22.59164062 12.8515625 23.49609375 C12.62109375 25.7734375 12.62109375 25.7734375 10.62109375 27.7734375 C7.82424578 27.94868805 5.12781295 28.00486939 2.33203125 27.96875 C1.1043956 27.96450516 1.1043956 27.96450516 -0.14804077 27.96017456 C-2.76681018 27.94896282 -5.38523989 27.92385679 -8.00390625 27.8984375 C-9.77733882 27.88840897 -11.55077674 27.8792829 -13.32421875 27.87109375 C-17.67591251 27.84902028 -22.02735175 27.81448394 -26.37890625 27.7734375 C-23.53177293 33.78540213 -23.53177293 33.78540213 -18.37890625 37.7734375 C-13.45963845 38.5167564 -9.04094996 38.32300957 -4.50390625 36.2109375 C-1.37890625 34.7734375 -1.37890625 34.7734375 0.61328125 34.9609375 C3.12028909 35.97544651 4.19015702 37.23476659 5.87109375 39.3359375 C6.65226563 40.29693359 6.65226563 40.29693359 7.44921875 41.27734375 C7.8359375 41.77105469 8.22265625 42.26476562 8.62109375 42.7734375 C6.32874231 47.91777547 2.75378647 49.88481553 -2.37890625 52.0234375 C-10.95718522 54.13941298 -21.4974492 54.03368455 -29.37890625 49.7734375 C-35.78563479 45.57994246 -40.28963324 40.19661488 -42.37890625 32.7734375 C-43.31821143 24.436065 -43.81646037 15.71161532 -38.37890625 8.7734375 C-35.94140625 6.0234375 -35.94140625 6.0234375 -33.37890625 3.7734375 C-32.59515625 3.0721875 -31.81140625 2.3709375 -31.00390625 1.6484375 C-21.6469895 -5.03507446 -10.22823305 -5.27367024 0 0 Z " fill="#050507" transform="translate(505.37890625,768.2265625)"/>
<path d="M0 0 C5.77557691 3.70508707 8.90506589 8.54288706 11 15 C11.37050897 18.71446963 11.31789696 22.28413775 11 26 C7.77396455 27.61301773 4.25289962 27.12053599 0.7109375 27.09765625 C-0.51669815 27.09553383 -0.51669815 27.09553383 -1.76913452 27.09336853 C-4.38779325 27.0877629 -7.00636704 27.07520948 -9.625 27.0625 C-11.39843627 27.05748572 -13.17187387 27.05292269 -14.9453125 27.04882812 C-19.29690782 27.03779164 -23.6484395 27.02052325 -28 27 C-27.23721377 28.2964351 -26.46443041 29.58699148 -25.6875 30.875 C-25.25824219 31.59429688 -24.82898438 32.31359375 -24.38671875 33.0546875 C-22.98247625 35.26846333 -22.98247625 35.26846333 -20 37 C-15.15665276 37.65198905 -10.57961565 37.5394615 -6.125 35.4375 C-3 34 -3 34 -1.0078125 34.1875 C1.49919534 35.20200901 2.56906327 36.46132909 4.25 38.5625 C5.03117187 39.52349609 5.03117187 39.52349609 5.828125 40.50390625 C6.21484375 40.99761719 6.6015625 41.49132812 7 42 C4.70764856 47.14433797 1.13269272 49.11137803 -4 51.25 C-12.32733921 53.30865179 -22.43762855 53.35409265 -30 49 C-37.4625052 44.45640827 -41.16241996 39.28525481 -44 31 C-45.03836702 22.0481833 -44.48877248 14.34807824 -39 7 C-28.21093869 -4.7973848 -14.31508117 -7.88630836 0 0 Z " fill="#050507" transform="translate(353,769)"/>
<path d="M0 0 C6.41393732 3.74321588 10.20356024 8.72608365 12.4375 15.875 C12.81740383 18.72688437 12.81304258 21.52503294 12.765625 24.3984375 C12.76375183 25.18521881 12.76187866 25.97200012 12.75994873 26.78262329 C12.75326871 28.43146049 12.73943578 30.08028294 12.71875 31.72900391 C12.68733272 34.26349464 12.67774795 36.79736424 12.671875 39.33203125 C12.66271445 40.93750766 12.65234172 42.54297771 12.640625 44.1484375 C12.63425018 45.28894058 12.63425018 45.28894058 12.62774658 46.45248413 C12.5547307 51.7577693 12.5547307 51.7577693 11.4375 52.875 C8.92613896 52.97475032 6.44846585 53.01382183 3.9375 53 C3.23496094 53.00386719 2.53242187 53.00773438 1.80859375 53.01171875 C-3.43588622 53.00161378 -3.43588622 53.00161378 -4.5625 51.875 C-4.66069519 49.48710615 -4.69962492 47.12286849 -4.703125 44.734375 C-4.72146036 43.2564951 -4.74103135 41.7786301 -4.76171875 40.30078125 C-4.79064339 37.96572922 -4.81249861 35.63162927 -4.81298828 33.29638672 C-4.81633256 31.04568591 -4.8509434 28.79719142 -4.890625 26.546875 C-4.8835553 25.85398376 -4.8764856 25.16109253 -4.86920166 24.44720459 C-4.96601173 20.5720698 -5.48026577 18.97584319 -7.96191406 15.93261719 C-11.40380415 13.20934929 -13.19748556 13.2694917 -17.41015625 13.5078125 C-21.39341817 14.18735265 -23.77347778 16.08597778 -26.5625 18.875 C-26.79553892 21.36744612 -26.91175469 23.75758572 -26.94140625 26.25390625 C-26.95840073 26.98117416 -26.9753952 27.70844208 -26.99290466 28.45774841 C-27.04610694 30.78424376 -27.08636831 33.11072058 -27.125 35.4375 C-27.16887668 37.76775906 -27.21553109 40.09787713 -27.26780701 42.42796326 C-27.29984923 43.87907867 -27.32671259 45.330319 -27.34803772 46.78163147 C-27.45076809 51.76326809 -27.45076809 51.76326809 -28.5625 52.875 C-31.07386104 52.97475032 -33.55153415 53.01382183 -36.0625 53 C-36.76503906 53.00386719 -37.46757813 53.00773438 -38.19140625 53.01171875 C-43.43588622 53.00161378 -43.43588622 53.00161378 -44.5625 51.875 C-44.66111598 50.25372577 -44.69048767 48.62817632 -44.69189453 47.00390625 C-44.69504669 45.96613037 -44.69819885 44.92835449 -44.70144653 43.85913086 C-44.6994223 42.72999268 -44.69739807 41.60085449 -44.6953125 40.4375 C-44.69674759 38.71188843 -44.69674759 38.71188843 -44.69821167 36.95141602 C-44.69889369 34.51350856 -44.6970379 32.0755993 -44.69287109 29.63769531 C-44.68752317 25.89123482 -44.69281539 22.14489423 -44.69921875 18.3984375 C-44.69855797 16.03645807 -44.69727682 13.67447871 -44.6953125 11.3125 C-44.69733673 10.18336182 -44.69936096 9.05422363 -44.70144653 7.89086914 C-44.69829437 6.85309326 -44.69514221 5.81531738 -44.69189453 4.74609375 C-44.69109894 3.82755615 -44.69030334 2.90901855 -44.68948364 1.96264648 C-44.5625 -0.125 -44.5625 -0.125 -43.5625 -1.125 C-38.35241597 -1.54516807 -38.35241597 -1.54516807 -35.5625 -1.125 C-33.5625 0.75 -33.5625 0.75 -32.5625 2.875 C-32.5625 3.535 -32.5625 4.195 -32.5625 4.875 C-31.87542969 4.45347656 -31.18835938 4.03195312 -30.48046875 3.59765625 C-29.57941406 3.04980469 -28.67835937 2.50195312 -27.75 1.9375 C-26.85667969 1.39222656 -25.96335937 0.84695313 -25.04296875 0.28515625 C-17.66402301 -3.90980345 -7.57905188 -3.56124124 0 0 Z " fill="#040406" transform="translate(121.5625,767.125)"/>
<path d="M0 0 C1.26714844 -0.01417969 2.53429687 -0.02835938 3.83984375 -0.04296875 C7.0625 0.1875 7.0625 0.1875 9.0625 2.1875 C9.34960938 5.28857422 9.34960938 5.28857422 9.40625 9.2421875 C9.4208728 9.94014435 9.43549561 10.6381012 9.45056152 11.35720825 C9.49712028 13.59224719 9.53127398 15.82719738 9.5625 18.0625 C9.60369832 20.99772216 9.65743018 23.93232451 9.71875 26.8671875 C9.74678711 28.82760986 9.74678711 28.82760986 9.77539062 30.82763672 C10.04011438 33.92553499 10.36027172 35.63645789 12.0625 38.1875 C14.67564161 40.21994348 16.14661666 40.18597061 19.5 40.125 C23.71077101 39.01690237 25.31460722 37.50113542 28.0625 34.1875 C29.53602629 31.24044742 29.26609324 28.5322551 29.34375 25.24609375 C29.36215942 24.56321793 29.38056885 23.8803421 29.39953613 23.17677307 C29.47831002 20.25057812 29.54609985 17.3241524 29.61474609 14.39770508 C29.66636152 12.26371484 29.72364393 10.12992928 29.78125 7.99609375 C29.81154297 6.71532959 29.84183594 5.43456543 29.87304688 4.11499023 C30.0625 1.1875 30.0625 1.1875 31.0625 0.1875 C33.37243382 0.06192838 35.68668536 0.01174271 38 0 C39.26714844 -0.01417969 40.53429687 -0.02835938 41.83984375 -0.04296875 C45.0625 0.1875 45.0625 0.1875 47.0625 2.1875 C47.30973816 4.31274414 47.30973816 4.31274414 47.30541992 6.97265625 C47.31003487 8.46430298 47.31003487 8.46430298 47.31474304 9.98608398 C47.30755753 11.06317627 47.30037201 12.14026855 47.29296875 13.25 C47.29251053 14.352229 47.29205231 15.45445801 47.2915802 16.59008789 C47.28855522 18.92367629 47.28066166 21.25726263 47.26831055 23.59082031 C47.25007586 27.17259842 47.24780067 30.75411787 47.24804688 34.3359375 C47.243131 36.59896058 47.23730238 38.8619819 47.23046875 41.125 C47.22935593 42.20209229 47.2282431 43.27918457 47.22709656 44.38891602 C47.22071671 45.38334717 47.21433685 46.37777832 47.20776367 47.40234375 C47.20204597 48.71900024 47.20204597 48.71900024 47.19621277 50.06225586 C47.0625 52.1875 47.0625 52.1875 46.0625 54.1875 C43.0925 54.1875 40.1225 54.1875 37.0625 54.1875 C36.4025 52.2075 35.7425 50.2275 35.0625 48.1875 C34.03125 48.97125 33 49.755 31.9375 50.5625 C25.00289969 55.83279624 17.43440887 55.82282234 9.0625 55.1875 C3.36471245 54.17168698 0.04690217 51.70168026 -3.61328125 47.296875 C-7.40106555 41.26323629 -8.3777941 36.44124247 -8.265625 29.4453125 C-8.26375183 28.63633514 -8.26187866 27.82735779 -8.25994873 26.99386597 C-8.25326698 25.29795154 -8.23943051 23.6020515 -8.21875 21.90625 C-8.18734139 19.29933496 -8.17774902 16.6930238 -8.171875 14.0859375 C-8.16271417 12.43488839 -8.15234135 10.78384546 -8.140625 9.1328125 C-8.13637512 8.35060333 -8.13212524 7.56839417 -8.12774658 6.76248169 C-8.03112352 -0.45943422 -7.0444672 0.03575872 0 0 Z " fill="#040406" transform="translate(253.9375,765.8125)"/>
<path d="M0 0 C-0.60698743 4.12751449 -2.03810791 7.3321148 -4 11 C-7.46941546 10.54177532 -10.67395049 10.10868317 -14 9 C-15.39439664 8.93334624 -16.79169875 8.91461801 -18.1875 8.9375 C-19.445625 8.958125 -20.70375 8.97875 -22 9 C-22 10.32 -22 11.64 -22 13 C-21.02160156 13.3403125 -20.04320312 13.680625 -19.03515625 14.03125 C-10.811109 17.02267111 -3.7896276 20.10828593 2 27 C3.35682449 31.07047347 3.52472254 34.74391717 3 39 C0.3254526 44.25003749 -3.16366209 47.83529994 -8.64453125 50.0859375 C-17.23778981 52.42682516 -28.5975374 52.59037244 -36.51171875 48.1953125 C-38 47 -38 47 -39.3125 44.6875 C-38.8551548 40.7543313 -37.14601827 38.31657369 -35 35 C-31.87709365 35.48578543 -29.00419641 35.9986012 -26 37 C-24.27204648 37.06802967 -22.54164635 37.08495645 -20.8125 37.0625 C-19.91144531 37.05347656 -19.01039063 37.04445313 -18.08203125 37.03515625 C-17.39496094 37.02355469 -16.70789063 37.01195312 -16 37 C-15.97415283 34.57942886 -15.97415283 34.57942886 -17 32 C-20.00394326 30.24836537 -20.00394326 30.24836537 -23.6875 29 C-30.32135512 26.40025726 -34.82878072 24.25682892 -38.875 18.1875 C-40.48346721 13.63017624 -40.94353163 9.62802879 -39.30859375 5.07421875 C-36.86251727 0.29464672 -33.41287184 -2.89192473 -28.1953125 -4.5859375 C-18.63240257 -6.38961802 -8.19074825 -5.46049883 0 0 Z " fill="#050507" transform="translate(561,770)"/>
<path d="M0 0 C0.85098267 -0.00945648 1.70196533 -0.01891296 2.57873535 -0.02865601 C3.49441284 -0.02258331 4.41009033 -0.01651062 5.35351562 -0.01025391 C6.29658569 -0.01312408 7.23965576 -0.01599426 8.21130371 -0.01895142 C10.20516561 -0.02099287 12.1990475 -0.01545734 14.19287109 -0.00292969 C17.24817607 0.0131227 20.30215814 -0.00277574 23.35742188 -0.02197266 C25.29362272 -0.01999024 27.22982273 -0.0161466 29.16601562 -0.01025391 C30.53953186 -0.01936295 30.53953186 -0.01936295 31.9407959 -0.02865601 C32.79177856 -0.01919952 33.64276123 -0.00974304 34.51953125 0 C35.64180115 0.00358017 35.64180115 0.00358017 36.78674316 0.00723267 C39.31719525 0.49581204 40.20835162 1.36211341 41.75976562 3.38818359 C42.13208008 6.06787109 42.13208008 6.06787109 42.12304688 9.26318359 C42.12240234 10.41302734 42.12175781 11.56287109 42.12109375 12.74755859 C42.10498047 13.94896484 42.08886719 15.15037109 42.07226562 16.38818359 C42.07548828 17.58958984 42.07871094 18.79099609 42.08203125 20.02880859 C42.02679179 28.98764434 42.02679179 28.98764434 39.75976562 32.38818359 C37.86903381 32.76913452 37.86903381 32.76913452 35.54125977 32.77636719 C34.67018082 32.78582367 33.79910187 32.79528015 32.90162659 32.80502319 C31.95891403 32.7989505 31.01620148 32.79287781 30.04492188 32.78662109 C28.59490028 32.79092636 28.59490028 32.79092636 27.11558533 32.7953186 C25.06866878 32.79736247 23.02173284 32.79181013 20.97485352 32.77929688 C17.83826021 32.76326534 14.70295896 32.7791259 11.56640625 32.79833984 C9.58007527 32.79635713 7.5937451 32.79251287 5.60742188 32.78662109 C4.19638939 32.79573013 4.19638939 32.79573013 2.7568512 32.80502319 C1.44550453 32.79083847 1.44550453 32.79083847 0.10766602 32.77636719 C-0.66129501 32.77398041 -1.43025604 32.77159363 -2.22251892 32.76913452 C-4.78551264 32.28523337 -5.67437976 31.44247955 -7.24023438 29.38818359 C-7.62841797 26.70849609 -7.62841797 26.70849609 -7.63867188 23.51318359 C-7.64253906 22.36333984 -7.64640625 21.21349609 -7.65039062 20.02880859 C-7.63878906 18.82740234 -7.6271875 17.62599609 -7.61523438 16.38818359 C-7.62683594 15.18677734 -7.6384375 13.98537109 -7.65039062 12.74755859 C-7.64652344 11.59771484 -7.64265625 10.44787109 -7.63867188 9.26318359 C-7.63528809 8.20873047 -7.6319043 7.15427734 -7.62841797 6.06787109 C-6.94602974 1.35724641 -4.56694357 0.01456907 0 0 Z " fill="#FDFDFD" transform="translate(714.240234375,120.61181640625)"/>
<path d="M0 0 C1.48831242 0.00667405 2.97660807 0.01863442 4.46484375 0.03515625 C5.22345703 0.03966797 5.98207031 0.04417969 6.76367188 0.04882812 C8.64326246 0.06064945 10.52281274 0.07858547 12.40234375 0.09765625 C12.42546751 10.38070163 12.443259 20.66374087 12.45415592 30.94680691 C12.45938468 35.72113905 12.46648219 40.49545346 12.4777832 45.26977539 C12.48861235 49.87331887 12.49462064 54.47684524 12.49722099 59.08040047 C12.49907519 60.84075248 12.50269571 62.60110351 12.50807381 64.36144829 C12.51528461 66.81837902 12.51633468 69.2752382 12.51586914 71.73217773 C12.51946442 72.4672908 12.52305969 73.20240387 12.52676392 73.95979309 C12.51639591 78.98360409 12.51639591 78.98360409 11.40234375 80.09765625 C8.89098271 80.19740657 6.4133096 80.23647808 3.90234375 80.22265625 C3.19980469 80.22652344 2.49726563 80.23039063 1.7734375 80.234375 C-3.47104247 80.22427003 -3.47104247 80.22427003 -4.59765625 79.09765625 C-4.69795482 76.6690859 -4.7338405 74.26894012 -4.72705078 71.83984375 C-4.7288031 71.08052551 -4.73055542 70.32120728 -4.73236084 69.53887939 C-4.73677955 67.01678209 -4.73384131 64.49475432 -4.73046875 61.97265625 C-4.73114178 60.22770169 -4.7321118 58.48274721 -4.73336792 56.73779297 C-4.73484492 53.0758373 -4.73269028 49.41390597 -4.72802734 45.75195312 C-4.72233005 41.04721133 -4.72560905 36.34252657 -4.73159981 31.63778687 C-4.73520537 28.03311734 -4.73406686 24.42846143 -4.73147202 20.8237915 C-4.73080273 19.08856194 -4.73163121 17.35333116 -4.73395157 15.61810303 C-4.73647802 13.19719138 -4.73263763 10.77637339 -4.72705078 8.35546875 C-4.72907501 7.63127747 -4.73109924 6.90708618 -4.73318481 6.16094971 C-4.70726037 0.1277758 -4.70726037 0.1277758 0 0 Z " fill="#030305" transform="translate(441.59765625,739.90234375)"/>
<path d="M0 0 C2.45862401 -0.05383848 4.9160755 -0.09359038 7.375 -0.125 C8.42300781 -0.15013672 8.42300781 -0.15013672 9.4921875 -0.17578125 C11.32897486 -0.19344267 13.16601963 -0.10303261 15 0 C17.50944305 2.50944305 17.2525033 3.31764087 17.25878906 6.78515625 C17.26509338 7.7795874 17.27139771 8.77401855 17.27789307 9.79858398 C17.2738446 10.87567627 17.26979614 11.95276855 17.265625 13.0625 C17.26753845 14.164729 17.2694519 15.26695801 17.27142334 16.40258789 C17.27278612 18.73616768 17.26908322 21.06975503 17.26074219 23.40332031 C17.25004421 26.98519847 17.26063458 30.56657503 17.2734375 34.1484375 C17.27211592 36.41145945 17.26955357 38.67448108 17.265625 40.9375 C17.26967346 42.01459229 17.27372192 43.09168457 17.27789307 44.20141602 C17.27158875 45.19584717 17.26528442 46.19027832 17.25878906 47.21484375 C17.25640228 48.53150024 17.25640228 48.53150024 17.25396729 49.87475586 C17 52 17 52 15 54 C12.43707683 54.17163731 9.99654143 54.23264558 7.4375 54.1875 C6.73947266 54.18685547 6.04144531 54.18621094 5.32226562 54.18554688 C0.14031158 54.14031158 0.14031158 54.14031158 -1 53 C-1.09853953 51.41466455 -1.12798689 49.82496659 -1.12939453 48.23657227 C-1.13254669 47.22204483 -1.13569885 46.2075174 -1.13894653 45.1622467 C-1.1369223 44.05811935 -1.13489807 42.953992 -1.1328125 41.81640625 C-1.13376923 40.69056625 -1.13472595 39.56472626 -1.13571167 38.4047699 C-1.13639373 36.01813705 -1.13453764 33.63150236 -1.13037109 31.24487305 C-1.12502819 27.58182623 -1.13031268 23.91890232 -1.13671875 20.25585938 C-1.13605788 17.94270806 -1.13477652 15.62955682 -1.1328125 13.31640625 C-1.13483673 12.21430313 -1.13686096 11.11220001 -1.13894653 9.97669983 C-1.13579437 8.95902023 -1.13264221 7.94134064 -1.12939453 6.89282227 C-1.12859894 5.99427017 -1.12780334 5.09571808 -1.12698364 4.16993713 C-1 2 -1 2 0 0 Z " fill="#0B0B0D" transform="translate(44,766)"/>
<path d="M0 0 C2.92152702 1.8344472 5.4326609 3.86532181 7 7 C8.0181919 17.21530231 8.0181919 17.21530231 5.125 21.625 C2.93535942 24.07224536 2.13060909 24.90929815 -1.09375 25.16796875 C-1.8878125 25.17441406 -2.681875 25.18085937 -3.5 25.1875 C-4.2940625 25.20167969 -5.088125 25.21585938 -5.90625 25.23046875 C-8 25 -8 25 -10 23 C-10.33 26.63 -10.66 30.26 -11 34 C-12.65 34 -14.3 34 -16 34 C-16 23.11 -16 12.22 -16 1 C-14.35 1 -12.7 1 -11 1 C-11 1.66 -11 2.32 -11 3 C-10.29875 2.505 -9.5975 2.01 -8.875 1.5 C-5.46483475 -0.27921665 -3.79446342 -0.61950423 0 0 Z " fill="#141415" transform="translate(437,849)"/>
<path d="M0 0 C1.01964844 -0.01675781 2.03929687 -0.03351562 3.08984375 -0.05078125 C7.39921204 0.4758564 10.0339703 2.14210413 12.875 5.375 C14.63271759 9.72303825 14.72200013 13.68858898 14.0625 18.3125 C12.25087697 22.14477948 10.72375786 23.85696681 7.25 26.25 C3.26230361 27.57923213 1.10249845 27.46678527 -2.9375 26.3125 C-5.84412241 24.442095 -8.36466449 22.45817101 -9.9375 19.3125 C-10.00944869 16.42879667 -10.03041708 13.57010336 -10 10.6875 C-9.99548828 9.88570312 -9.99097656 9.08390625 -9.98632812 8.2578125 C-9.97453168 6.27600994 -9.95659605 4.29424567 -9.9375 2.3125 C-6.56812701 0.28441218 -3.90539912 0.01477452 0 0 Z " fill="#F9F9F9" transform="translate(397.9375,779.6875)"/>
<path d="M0 0 C2.375 1.5 2.375 1.5 4 3 C4.33 2.34 4.66 1.68 5 1 C6.32 1 7.64 1 9 1 C9 12.22 9 23.44 9 35 C7.35 35 5.7 35 4 35 C3.67 31.37 3.34 27.74 3 24 C2.34 24.33 1.68 24.66 1 25 C-2.08382979 25.47862977 -4.92001564 25.52572147 -8 25 C-11.77708979 22.22499526 -12.715557 20.72076263 -13.47265625 16.140625 C-13.70966874 11.25452132 -13.81239776 7.23034308 -10.625 3.3125 C-6.88894097 0.0212099 -4.95916296 -0.39673304 0 0 Z " fill="#0A0A0C" transform="translate(328,849)"/>
<path d="M0 0 C1.32 0 2.64 0 4 0 C4 11.55 4 23.1 4 35 C2.68 35 1.36 35 0 35 C-0.33 34.34 -0.66 33.68 -1 33 C-1.99 33.66 -2.98 34.32 -4 35 C-10.99656881 35.78993519 -10.99656881 35.78993519 -14.9375 32.6875 C-18.24159863 28.38215936 -18.56023957 24.28225877 -18 19 C-16.8064211 15.83701592 -15.53571538 13.63873756 -13.375 11.0625 C-9.62512846 9.38492589 -5.94385082 10.13603268 -2 11 C-1.67 11.33 -1.34 11.66 -1 12 C-0.67 8.04 -0.34 4.08 0 0 Z " fill="#0A0A0C" transform="translate(518,839)"/>
<path d="M0 0 C3.19999014 1.26205219 5.42518973 2.85037946 7 6 C7.41059292 10.61917038 6.83584686 13.29158487 4 17 C3.34 17 2.68 17 2 17 C2.61875 17.763125 3.2375 18.52625 3.875 19.3125 C6.872733 23.72405743 7.29908821 28.8169418 8 34 C6.35 34 4.7 34 3 34 C2.80664062 33.22914063 2.61328125 32.45828125 2.4140625 31.6640625 C2.02347656 30.15972656 2.02347656 30.15972656 1.625 28.625 C1.36976562 27.62726562 1.11453125 26.62953125 0.8515625 25.6015625 C0.17595681 22.87458985 0.17595681 22.87458985 -2 21 C-4.32275177 20.59952556 -6.65739357 20.2602896 -9 20 C-9 24.62 -9 29.24 -9 34 C-10.65 34 -12.3 34 -14 34 C-14 23.11 -14 12.22 -14 1 C-9.82297704 -1.08851148 -4.54840084 -0.44475888 0 0 Z " fill="#171718" transform="translate(58,840)"/>
<path d="M0 0 C3.02508145 1.73602105 5.41790069 3.83580137 7 7 C7.41079745 11.90586951 7.62569374 16.46705034 5.75 21.0625 C3.32561166 23.74664424 1.16506033 24.80298167 -2.40234375 25.40625 C-9.11274541 25.65440045 -9.11274541 25.65440045 -11.7265625 23.7265625 C-15.3888746 19.33607139 -16.45273005 15.95496625 -16.42578125 10.39453125 C-15.69260603 6.27126142 -13.08526198 3.68561665 -10 1 C-6.77140153 -0.61429923 -3.49006347 -0.59570657 0 0 Z " fill="#0F0F10" transform="translate(202,849)"/>
<path d="M0 0 C2.75329021 1.79562405 4.52627461 3.05254922 6 6 C6.08342159 7.44848582 6.10732861 8.90070869 6.09765625 10.3515625 C6.09443359 11.20234375 6.09121094 12.053125 6.08789062 12.9296875 C6.07951172 13.81914063 6.07113281 14.70859375 6.0625 15.625 C6.05798828 16.5221875 6.05347656 17.419375 6.04882812 18.34375 C6.03702591 20.56256648 6.02056155 22.78125018 6 25 C4.68 25 3.36 25 2 25 C2 24.34 2 23.68 2 23 C1.505 23.33 1.01 23.66 0.5 24 C-3.25595542 25.50238217 -5.95046363 25.38567013 -10 25 C-12.64514727 22.85081784 -12.9253098 21.39004883 -13.5625 18.0625 C-12.91684674 14.54727669 -11.72313249 13.04088629 -8.8671875 10.90234375 C-5.546085 9.29737581 -2.62568679 9.68744079 1 10 C0.34 8.35 -0.32 6.7 -1 5 C-4.3 5 -7.6 5 -11 5 C-10.67 3.68 -10.34 2.36 -10 1 C-6.39427296 -0.20190901 -3.7897565 -0.32670315 0 0 Z " fill="#0E0E10" transform="translate(595,849)"/>
<path d="M0 0 C2.8100346 1.79363911 4.50940468 3.01880935 6 6 C6.08342159 7.44848582 6.10732861 8.90070869 6.09765625 10.3515625 C6.09443359 11.20234375 6.09121094 12.053125 6.08789062 12.9296875 C6.07951172 13.81914063 6.07113281 14.70859375 6.0625 15.625 C6.05798828 16.5221875 6.05347656 17.419375 6.04882812 18.34375 C6.03702591 20.56256648 6.02056155 22.78125018 6 25 C4.68 25 3.36 25 2 25 C1.67 24.34 1.34 23.68 1 23 C0.01 23.66 -0.98 24.32 -2 25 C-5.91054241 25.42660463 -8.12030578 25.58646281 -11.4375 23.375 C-13.51291762 20.22036523 -13.75647674 18.70673603 -13 15 C-10.38334126 11.99084245 -8.7967064 10.25437241 -4.8203125 9.69140625 C-2.625 9.6875 -2.625 9.6875 1 10 C0.34 8.35 -0.32 6.7 -1 5 C-4.3 5 -7.6 5 -11 5 C-10.67 3.68 -10.34 2.36 -10 1 C-6.79826746 -0.60086627 -3.47422941 -0.49917089 0 0 Z " fill="#121213" transform="translate(130,849)"/>
<path d="M0 0 C2.875 2.4375 2.875 2.4375 5 5 C5.33 5.33 5.66 5.66 6 6 C6 8.64 6 11.28 6 14 C0.72 14 -4.56 14 -10 14 C-8.45957252 18.80304035 -8.45957252 18.80304035 -6 21 C-3.55987051 21.24287489 -3.55987051 21.24287489 -0.875 21.125 C0.03507812 21.10695313 0.94515625 21.08890625 1.8828125 21.0703125 C2.93082031 21.03550781 2.93082031 21.03550781 4 21 C4 22.32 4 23.64 4 25 C-7.89826518 25.7839267 -7.89826518 25.7839267 -12.25 22.6875 C-15.36112751 17.90969704 -15.53686092 13.54430911 -15 8 C-12.20546606 1.23428626 -7.12090064 -1.01727152 0 0 Z " fill="#19191B" transform="translate(392,849)"/>
<path d="M0 0 C2.75329021 1.79562405 4.52627461 3.05254922 6 6 C6 8.64 6 11.28 6 14 C0.72 14 -4.56 14 -10 14 C-8.52360997 19.06008639 -8.52360997 19.06008639 -5 21 C-2.48415109 21.24150773 -2.48415109 21.24150773 0.1875 21.125 C1.53908203 21.09792969 1.53908203 21.09792969 2.91796875 21.0703125 C3.60503906 21.04710937 4.29210937 21.02390625 5 21 C5 21.99 5 22.98 5 24 C1.062678 25.968661 -3.70796246 25.45897511 -8 25 C-11.45658479 22.95426614 -12.7785359 21.33219615 -15 18 C-15.60321137 13.81668997 -15.45950776 10.08830786 -13.8125 6.1875 C-9.62978635 1.13939731 -6.74060723 -0.96294389 0 0 Z " fill="#1A1A1B" transform="translate(263,849)"/>
<path d="M0 0 C3.49406769 1.66762322 4.82670681 2.74006022 7 6 C7 8.64 7 11.28 7 14 C1.72 14 -3.56 14 -9 14 C-7.45957252 18.80304035 -7.45957252 18.80304035 -5 21 C-2.55987051 21.24287489 -2.55987051 21.24287489 0.125 21.125 C1.03507812 21.10695313 1.94515625 21.08890625 2.8828125 21.0703125 C3.93082031 21.03550781 3.93082031 21.03550781 5 21 C5.33 21.99 5.66 22.98 6 24 C1.80642919 26.09678541 -3.44475309 25.55270329 -8 25 C-11.48242391 22.47353559 -12.65226822 21.04319535 -14 17 C-14.41368897 12.7517325 -14.45400171 9.09916203 -12.8125 5.125 C-9.10217355 0.77496209 -5.70640318 -0.7133004 0 0 Z " fill="#181819" transform="translate(87,849)"/>
<path d="M0 0 C2.5286997 1.83112737 3.54251681 3.45503783 4.8125 6.3125 C4.8125 8.6225 4.8125 10.9325 4.8125 13.3125 C-0.4675 13.3125 -5.7475 13.3125 -11.1875 13.3125 C-10.8575 14.9625 -10.5275 16.6125 -10.1875 18.3125 C-6.87379 20.52164 -5.8428979 20.53731553 -2 20.4375 C-0.64841797 20.41042969 -0.64841797 20.41042969 0.73046875 20.3828125 C1.41753906 20.35960937 2.10460937 20.33640625 2.8125 20.3125 C2.8125 21.3025 2.8125 22.2925 2.8125 23.3125 C-1.14397388 25.29073694 -5.8857418 24.87737734 -10.1875 24.3125 C-13.60061667 21.78679367 -14.85387768 20.31336696 -16.1875 16.3125 C-16.73915147 11.56468 -16.63203763 8.18569891 -14.4375 3.875 C-10.29762787 -0.83985437 -6.12854599 -1.92611445 0 0 Z " fill="#1B1B1C" transform="translate(468.1875,849.6875)"/>
<path d="M0 0 C2.73117269 1.61921923 4.20587027 2.49606616 6 5 C6.73209384 8.46716974 6.56924677 11.78866428 6.375 15.3125 C6.34792969 16.24384766 6.32085937 17.17519531 6.29296875 18.13476562 C6.2224825 20.42556872 6.12404246 22.71157563 6 25 C4.35 25 2.7 25 1 25 C0.67 18.73 0.34 12.46 0 6 C-5.50800591 4.39107653 -5.50800591 4.39107653 -7.84301758 6.18676758 C-9.18517327 8.29020508 -9.41844818 9.53072155 -9.51171875 12.01171875 C-9.54716797 12.76904297 -9.58261719 13.52636719 -9.61914062 14.30664062 C-9.64169922 15.09232422 -9.66425781 15.87800781 -9.6875 16.6875 C-9.72166016 17.48478516 -9.75582031 18.28207031 -9.79101562 19.10351562 C-9.87338104 21.06851904 -9.93837067 23.03423696 -10 25 C-11.32 25 -12.64 25 -14 25 C-14 17.08 -14 9.16 -14 1 C-11.525 1.495 -11.525 1.495 -9 2 C-5.45870816 -0.36086122 -4.17249782 -0.57269578 0 0 Z " fill="#18181A" transform="translate(233,849)"/>
<path d="M0 0 C1.65 0 3.3 0 5 0 C5.06058594 1.28777344 5.12117187 2.57554687 5.18359375 3.90234375 C5.26798247 5.58074159 5.3526313 7.25912636 5.4375 8.9375 C5.47681641 9.78763672 5.51613281 10.63777344 5.55664062 11.51367188 C5.59853516 12.32255859 5.64042969 13.13144531 5.68359375 13.96484375 C5.72025146 14.7137085 5.75690918 15.46257324 5.79467773 16.23413086 C5.81771063 18.02461326 5.81771063 18.02461326 7 19 C9.95817107 19.25005386 9.95817107 19.25005386 13 19 C16.02093215 15.97906785 15.46676834 12.43627928 15.625 8.375 C15.66367187 7.57320312 15.70234375 6.77140625 15.7421875 5.9453125 C15.83653931 3.96392444 15.91936215 1.98199355 16 0 C17.32 0 18.64 0 20 0 C20 7.92 20 15.84 20 24 C18.68 23.67 17.36 23.34 16 23 C13.9254644 22.8509288 13.9254644 22.8509288 12 24 C6.21448468 24.55988858 6.21448468 24.55988858 4 24 C1.46839342 21.84328289 0.16427011 20.14708058 -0.31396484 16.80761719 C-0.39374302 14.25573187 -0.34892378 11.7385921 -0.25 9.1875 C-0.23195313 8.30384766 -0.21390625 7.42019531 -0.1953125 6.50976562 C-0.14838513 4.33937457 -0.07664731 2.16954481 0 0 Z " fill="#161618" transform="translate(533,850)"/>
<path d="M0 0 C1.32 0 2.64 0 4 0 C4.06058594 1.12019531 4.12117188 2.24039063 4.18359375 3.39453125 C4.26801424 4.86719984 4.35266149 6.33985544 4.4375 7.8125 C4.47681641 8.55048828 4.51613281 9.28847656 4.55664062 10.04882812 C4.74381035 13.23071342 4.98720793 15.96162378 6 19 C8.33294775 19.04241723 10.66702567 19.04092937 13 19 C14.51421001 17.48578999 14.21309856 16.07527232 14.31640625 13.96484375 C14.35830078 13.15595703 14.40019531 12.34707031 14.44335938 11.51367188 C14.50233398 10.2384668 14.50233398 10.2384668 14.5625 8.9375 C14.60568359 8.08349609 14.64886719 7.22949219 14.69335938 6.34960938 C14.79976702 4.23327963 14.90041731 2.11666187 15 0 C16.65 0 18.3 0 20 0 C20 7.92 20 15.84 20 24 C18.68 24 17.36 24 16 24 C15.67 23.34 15.34 22.68 15 22 C14.01 22.66 13.02 23.32 12 24 C6.30530973 24.63274336 6.30530973 24.63274336 4 24 C1.47514934 21.84087814 0.16401422 20.14427635 -0.31420898 16.80786133 C-0.39372684 14.25592241 -0.34892558 11.73863846 -0.25 9.1875 C-0.23195313 8.30384766 -0.21390625 7.42019531 -0.1953125 6.50976562 C-0.14838513 4.33937457 -0.07664731 2.16954481 0 0 Z " fill="#09090B" transform="translate(348,850)"/>
<path d="M0 0 C2.69990662 1.79993774 4.5418865 3.083773 6 6 C6.08342159 7.44848582 6.10732861 8.90070869 6.09765625 10.3515625 C6.09443359 11.20234375 6.09121094 12.053125 6.08789062 12.9296875 C6.07951172 13.81914063 6.07113281 14.70859375 6.0625 15.625 C6.05798828 16.5221875 6.05347656 17.419375 6.04882812 18.34375 C6.03702591 20.56256648 6.02056155 22.78125018 6 25 C4.35 25 2.7 25 1 25 C0.67 18.73 0.34 12.46 0 6 C-5.50800591 4.39107653 -5.50800591 4.39107653 -7.84301758 6.18676758 C-9.18517327 8.29020508 -9.41844818 9.53072155 -9.51171875 12.01171875 C-9.54716797 12.76904297 -9.58261719 13.52636719 -9.61914062 14.30664062 C-9.64169922 15.09232422 -9.66425781 15.87800781 -9.6875 16.6875 C-9.72166016 17.48478516 -9.75582031 18.28207031 -9.79101562 19.10351562 C-9.87338104 21.06851904 -9.93837067 23.03423696 -10 25 C-11.32 25 -12.64 25 -14 25 C-14 17.08 -14 9.16 -14 1 C-13.01 1 -12.02 1 -11 1 C-11 1.99 -11 2.98 -11 4 C-10.34 4 -9.68 4 -9 4 C-9 3.34 -9 2.68 -9 2 C-5.48746854 -0.34168764 -4.13530644 -0.49623677 0 0 Z " fill="#0F0F11" transform="translate(626,849)"/>
<path d="M0 0 C3.14595819 2.73201633 3.91970305 4.35762437 4.4375 8.5 C3.96825192 12.25398461 3.50184959 14.16457047 1 17 C-1.875 18.125 -1.875 18.125 -5 18 C-7.875 16.125 -7.875 16.125 -10 13 C-10.89328584 8.62678324 -10.78455197 5.23717811 -8.375 1.4375 C-5.25099332 -0.45334615 -3.59011393 -0.67314636 0 0 Z " fill="#F5F5F5" transform="translate(201,853)"/>
<path d="M0 0 C2.80943105 2.35629701 2.97562519 3.77656425 3.375 7.4375 C2.9729813 11.25667768 2.53697762 13.12475869 0 16 C-3.6920962 17.36447033 -5.28860865 17.32476562 -8.875 15.6875 C-11.66139646 12.16352801 -11.66090116 9.75309428 -11.4140625 5.35546875 C-11 3 -11 3 -9.4375 0.3125 C-5.89653848 -1.59417159 -3.80117244 -1.10579562 0 0 Z " fill="#F0F0F0" transform="translate(437,854)"/>
<path d="M0 0 C2.67845225 4.01767838 2.80886466 7.27887157 2 12 C-0.1875 15.125 -0.1875 15.125 -3 17 C-5.92445509 17 -7.31982278 16.52611298 -9.62109375 14.74609375 C-11.91949413 11.83565474 -11.46922782 8.96674293 -11.34375 5.390625 C-11 3 -11 3 -9.4375 0.3125 C-5.93248628 -1.57481508 -3.76636515 -1.04621254 0 0 Z " fill="#F3F3F3" transform="translate(516,854)"/>
<path d="M0 0 C3.375 0.9375 3.375 0.9375 5.375 2.9375 C6.03989712 7.80825794 6.28455079 12.3982602 3.75 16.6875 C1.375 17.9375 1.375 17.9375 -1.6875 17.9375 C-4.625 16.9375 -4.625 16.9375 -6.5 15.375 C-8.11280703 11.88058477 -8.27449343 8.67208723 -7.625 4.9375 C-5.49386158 0.76046869 -4.75981244 -0.08206573 0 0 Z " fill="#F4F4F4" transform="translate(326.625,853.0625)"/>
<path d="M0 0 C0.66 0.33 1.32 0.66 2 1 C1.67 2.32 1.34 3.64 1 5 C0.38511719 4.96519531 -0.22976562 4.93039062 -0.86328125 4.89453125 C-1.67152344 4.86746094 -2.47976562 4.84039063 -3.3125 4.8125 C-4.11300781 4.77769531 -4.91351563 4.74289062 -5.73828125 4.70703125 C-8.03829735 4.83334649 -8.03829735 4.83334649 -9.7734375 6.1953125 C-11.40202972 8.59152144 -11.36757744 10.1857629 -11.3125 13.0625 C-11.30863281 13.94035156 -11.30476562 14.81820312 -11.30078125 15.72265625 C-11.20899334 18.19662769 -11.20899334 18.19662769 -9 20 C-6.56747339 20.46162427 -6.56747339 20.46162427 -3.875 20.625 C-2.96492187 20.69976563 -2.05484375 20.77453125 -1.1171875 20.8515625 C-0.06917969 20.92503906 -0.06917969 20.92503906 1 21 C0.67 22.32 0.34 23.64 0 25 C-9.96651077 25.78545181 -9.96651077 25.78545181 -14.125 22.625 C-17.51771267 17.87520226 -17.92811856 13.75777255 -17 8 C-12.80166832 0.58649026 -8.02263947 -0.25468697 0 0 Z " fill="#161618" transform="translate(162,849)"/>
<path d="M0 0 C0.66 0.33 1.32 0.66 2 1 C2 2.32 2 3.64 2 5 C-0.64 5 -3.28 5 -6 5 C-6 6.32 -6 7.64 -6 9 C-5.44570313 9.25394531 -4.89140625 9.50789062 -4.3203125 9.76953125 C-3.59585937 10.11371094 -2.87140625 10.45789063 -2.125 10.8125 C-1.40570313 11.14894531 -0.68640625 11.48539063 0.0546875 11.83203125 C2 13 2 13 4 16 C3.85976678 19.36559738 3.73513797 21.28648374 1.2734375 23.67578125 C-1.46665558 25.27181485 -3.10631248 25.31159293 -6.25 25.1875 C-7.14203125 25.16042969 -8.0340625 25.13335938 -8.953125 25.10546875 C-9.62859375 25.07066406 -10.3040625 25.03585937 -11 25 C-11.33 23.68 -11.66 22.36 -12 21 C-8.93109813 19.46554906 -6.29905734 20.45015711 -3 21 C-2.67 19.68 -2.34 18.36 -2 17 C-2.6496875 16.64808594 -3.299375 16.29617188 -3.96875 15.93359375 C-6.51241744 14.43016068 -8.78463812 12.95825992 -11 11 C-11.8125 7.375 -11.8125 7.375 -11 4 C-8.0811897 -0.55334407 -5.14435411 -0.47632908 0 0 Z " fill="#141415" transform="translate(289,849)"/>
<path d="M0 0 C1.48831242 0.00667405 2.97660807 0.01863442 4.46484375 0.03515625 C5.22345703 0.03966797 5.98207031 0.04417969 6.76367188 0.04882812 C8.64326246 0.06064945 10.52281274 0.07858547 12.40234375 0.09765625 C12.40234375 3.72765625 12.40234375 7.35765625 12.40234375 11.09765625 C9.75644361 11.12450304 7.11081279 11.14441982 4.46484375 11.16015625 C3.33272461 11.17272461 3.33272461 11.17272461 2.17773438 11.18554688 C0.25240062 11.19418066 -1.67301206 11.14989958 -3.59765625 11.09765625 C-4.59765625 10.09765625 -4.59765625 10.09765625 -4.73046875 8.06640625 C-4.72789063 7.25171875 -4.7253125 6.43703125 -4.72265625 5.59765625 C-4.72523437 4.78296875 -4.7278125 3.96828125 -4.73046875 3.12890625 C-4.49652069 -0.44912289 -3.73496194 0.10138333 0 0 Z " fill="#030305" transform="translate(47.59765625,749.90234375)"/>
<path d="M0 0 C1.65 0 3.3 0 5 0 C5 11.55 5 23.1 5 35 C3.35 35 1.7 35 0 35 C0 23.45 0 11.9 0 0 Z " fill="#1B1B1C" transform="translate(103,839)"/>
<path d="M0 0 C0 1.65 0 3.3 0 5 C-1.2065625 5.4640625 -1.2065625 5.4640625 -2.4375 5.9375 C-4.89080405 6.76335345 -4.89080405 6.76335345 -6 8 C-6.23701239 10.85877909 -6.42219182 13.69883297 -6.5625 16.5625 C-6.60568359 17.36880859 -6.64886719 18.17511719 -6.69335938 19.00585938 C-6.79975262 21.00368805 -6.90040888 23.0018207 -7 25 C-8.65 25 -10.3 25 -12 25 C-12 17.08 -12 9.16 -12 1 C-10.68 1 -9.36 1 -8 1 C-7.67 1.66 -7.34 2.32 -7 3 C-6.5875 2.505 -6.175 2.01 -5.75 1.5 C-4 0 -4 0 0 0 Z " fill="#151517" transform="translate(576,849)"/>
<path d="M0 0 C0 1.65 0 3.3 0 5 C-0.804375 5.12375 -1.60875 5.2475 -2.4375 5.375 C-3.7059375 5.684375 -3.7059375 5.684375 -5 6 C-6.6498007 9.29960141 -6.38258361 12.99127884 -6.5625 16.625 C-6.62727539 17.82769531 -6.62727539 17.82769531 -6.69335938 19.0546875 C-6.79951457 21.0362511 -6.90026855 23.01810271 -7 25 C-8.65 25 -10.3 25 -12 25 C-12 17.08 -12 9.16 -12 1 C-10.68 1 -9.36 1 -8 1 C-7.67 1.66 -7.34 2.32 -7 3 C-6.5875 2.505 -6.175 2.01 -5.75 1.5 C-4 0 -4 0 0 0 Z " fill="#141415" transform="translate(494,849)"/>
<path d="M0 0 C2.64189069 1.3961211 3.94143113 2.73029586 6 5 C6 5.99 6 6.98 6 8 C-0.93 8 -7.86 8 -15 8 C-11.15028003 0.30056007 -8.1992187 -1.39442495 0 0 Z " fill="#F7F7F7" transform="translate(495,778)"/>
<path d="M0 0 C3.87537633 0.78980036 5.62445013 2.55317979 8.26171875 5.4609375 C8.26171875 6.4509375 8.26171875 7.4409375 8.26171875 8.4609375 C1.66171875 8.4609375 -4.93828125 8.4609375 -11.73828125 8.4609375 C-9.9940978 1.48420369 -6.93083935 -0.29785425 0 0 Z " fill="#FAFAFA" transform="translate(338.73828125,777.5390625)"/>
<path d="M0 0 C1.258125 -0.04125 2.51625 -0.0825 3.8125 -0.125 C4.52019531 -0.14820313 5.22789063 -0.17140625 5.95703125 -0.1953125 C8 0 8 0 11 2 C11.4375 5.4375 11.4375 5.4375 11 9 C9.4375 10.9375 9.4375 10.9375 7 12 C3.25 12.1875 3.25 12.1875 0 12 C0 8.04 0 4.08 0 0 Z " fill="#F9F9F9" transform="translate(49,844)"/>
<path d="M0 0 C1.65 0 3.3 0 5 0 C5 7.92 5 15.84 5 24 C3.35 24 1.7 24 0 24 C0 16.08 0 8.16 0 0 Z " fill="#0F0F10" transform="translate(172,850)"/>
<path d="M0 0 C2.31 0.33 4.62 0.66 7 1 C7.33 1.99 7.66 2.98 8 4 C7.5155542 4.4122583 7.0311084 4.8245166 6.53198242 5.24926758 C4.70832867 7.33331874 4.59077411 8.28540863 4.48828125 11.01171875 C4.45283203 11.76904297 4.41738281 12.52636719 4.38085938 13.30664062 C4.35830078 14.09232422 4.33574219 14.87800781 4.3125 15.6875 C4.27833984 16.48478516 4.24417969 17.28207031 4.20898438 18.10351562 C4.12661896 20.06851904 4.06162933 22.03423696 4 24 C2.68 24 1.36 24 0 24 C0 16.08 0 8.16 0 0 Z " fill="#09090B" transform="translate(219,850)"/>
<path d="M0 0 C1.32 0 2.64 0 4 0 C4.02895225 3.29164829 4.0467823 6.58326399 4.0625 9.875 C4.07087891 10.81214844 4.07925781 11.74929688 4.08789062 12.71484375 C4.09111328 13.61074219 4.09433594 14.50664063 4.09765625 15.4296875 C4.10289307 16.25710449 4.10812988 17.08452148 4.11352539 17.93701172 C4 20 4 20 3 22 C2.34 22 1.68 22 1 22 C1 21.34 1 20.68 1 20 C0.34 20 -0.32 20 -1 20 C-0.67 13.4 -0.34 6.8 0 0 Z " fill="#010103" transform="translate(549,850)"/>
<path d="M0 0 C2.76223278 2.76223278 2.57856291 5.20706617 3 9 C3.763125 9 4.52625 9 5.3125 9 C7.20833333 9 9.10416667 9 11 9 C10 12 10 12 8 13 C4.12575435 13.35872645 1.85066094 13.56710729 -1.4375 11.375 C-3.44814771 8.31881548 -3.53520313 6.59350675 -3 3 C-1.5 1.125 -1.5 1.125 0 0 Z " fill="#0B0B0D" transform="translate(120,861)"/>
<path d="M0 0 C0.36190476 5.42857143 0.36190476 5.42857143 -1.1875 7.875 C-3.58590175 9.36366316 -5.22806071 9.29178308 -8 9 C-9 8 -9 8 -9.25 5.0625 C-9.1675 4.051875 -9.085 3.04125 -9 2 C-5.5647952 -0.29013653 -4.014669 -0.17842973 0 0 Z " fill="#F3F3F3" transform="translate(131,862)"/>
<path d="M0 0 C0.36190476 5.42857143 0.36190476 5.42857143 -1.1875 7.875 C-3.58590175 9.36366316 -5.22806071 9.29178308 -8 9 C-9 8 -9 8 -9.25 5.0625 C-9.1675 4.051875 -9.085 3.04125 -9 2 C-5.5647952 -0.29013653 -4.014669 -0.17842973 0 0 Z " fill="#F2F2F2" transform="translate(596,862)"/>
<path d="M0 0 C0.66 0 1.32 0 2 0 C5.13086481 4.09420783 5 5.45481354 5 11 C0.71 11 -3.58 11 -8 11 C-7.67 10.34 -7.34 9.68 -7 9 C-4.36 9 -1.72 9 1 9 C0.01 6.69 -0.98 4.38 -2 2 C-1.34 1.34 -0.68 0.68 0 0 Z " fill="#09090A" transform="translate(468,851)"/>
<path d="M0 0 C3.0625 0.3125 3.0625 0.3125 4.9375 1.625 C6.0625 3.3125 6.0625 3.3125 6.0625 6.3125 C2.1025 6.3125 -1.8575 6.3125 -5.9375 6.3125 C-4.47848361 0.47643443 -4.47848361 0.47643443 0 0 Z " fill="#F6F6F6" transform="translate(258.9375,852.6875)"/>
<path d="M0 0 C2 2 2 2 2 6 C-1.63 6 -5.26 6 -9 6 C-8.67 4.35 -8.34 2.7 -8 1 C-5.23749964 -0.38125018 -3.05268901 -0.19079306 0 0 Z " fill="#F8F8F8" transform="translate(466,853)"/>
<path d="M0 0 C3.0625 0.4375 3.0625 0.4375 4.9375 2.875 C6.0625 5.4375 6.0625 5.4375 6.0625 6.4375 C2.1025 6.4375 -1.8575 6.4375 -5.9375 6.4375 C-4.49551105 0.6695442 -4.49551105 0.6695442 0 0 Z " fill="#F9F9FA" transform="translate(387.9375,852.5625)"/>
<path d="M0 0 C3.0625 0.4375 3.0625 0.4375 4.9375 2.875 C6.0625 5.4375 6.0625 5.4375 6.0625 6.4375 C2.1025 6.4375 -1.8575 6.4375 -5.9375 6.4375 C-4.49551105 0.6695442 -4.49551105 0.6695442 0 0 Z " fill="#F9F9FA" transform="translate(83.9375,852.5625)"/>
<path d="M0 0 C2.875 2.5 2.875 2.5 5 5 C4.34 5.66 3.68 6.32 3 7 C2.01 6.34 1.02 5.68 0 5 C-3.34421001 3.49688643 -3.34421001 3.49688643 -7 3 C-9.94900524 4.72376805 -9.94900524 4.72376805 -12 7 C-9.63733336 1.29022228 -6.2362043 -1.0181558 0 0 Z " fill="#161617" transform="translate(328,849)"/>
<path d="M0 0 C3.63 0 7.26 0 11 0 C11 0.99 11 1.98 11 3 C8.35541621 4.32229189 6.32238699 4.09677194 3.375 4.0625 C2.37210937 4.05347656 1.36921875 4.04445313 0.3359375 4.03515625 C-0.43492187 4.02355469 -1.20578125 4.01195312 -2 4 C-1.34 2.68 -0.68 1.36 0 0 Z " fill="#0B0B0C" transform="translate(257,870)"/>
<path d="M0 0 C0 1.65 0 3.3 0 5 C-1.98 5.66 -3.96 6.32 -6 7 C-6.66 6.01 -7.32 5.02 -8 4 C-4.5 0 -4.5 0 0 0 Z " fill="#1E1E1F" transform="translate(576,849)"/>
<path d="M0 0 C-0.99 0.66 -1.98 1.32 -3 2 C-2.67 2.66 -2.34 3.32 -2 4 C-6.455 4.495 -6.455 4.495 -11 5 C-10.67 3.68 -10.34 2.36 -10 1 C-6.52674819 -0.1577506 -3.63932552 -0.06866652 0 0 Z " fill="#262628" transform="translate(595,849)"/>
<path d="M0 0 C1.98 0.495 1.98 0.495 4 1 C3.67 2.65 3.34 4.3 3 6 C1.68 5.67 0.36 5.34 -1 5 C-0.67 3.35 -0.34 1.7 0 0 Z " fill="#18181A" transform="translate(173,840)"/>
<path d="M0 0 C2.64 0 5.28 0 8 0 C8 1.32 8 2.64 8 4 C5.69 3.67 3.38 3.34 1 3 C0.67 2.01 0.34 1.02 0 0 Z " fill="#0D0D0E" transform="translate(283,850)"/>
<path d="M0 0 C0 0.33 0 0.66 0 1 C-2.31 1.33 -4.62 1.66 -7 2 C-7 2.99 -7 3.98 -7 5 C-8.32 5 -9.64 5 -11 5 C-10.625 3.0625 -10.625 3.0625 -10 1 C-6.78548731 -0.60725635 -3.56387464 -0.05748185 0 0 Z " fill="#3D3D3E" transform="translate(130,849)"/>
</svg>
